<svg width="1180" height="430" xmlns="http://www.w3.org/2000/svg">
<g>
<path d="M 80.00 120.00 L 100.00 120.00" fill="none" stroke="#000" stroke-width="2" />
<text x="60.00" y="127.00" font-family="Arial,Helvetica,sans-serif" font-size="14" font-weight="bold" text-anchor="middle" stroke="none" fill="#000" >1</text>
<circle cx="100.00" cy="120.00" r="4.00" stroke="none" fill="#fff" />
<circle cx="100.00" cy="120.00" r="4.00" fill="none" stroke="#000" stroke-width="2" />
<path d="M 120.00 120.00 L 145.00 120.00" fill="none" stroke="#000" stroke-width="2" />
<path d="M 175.00 120.00 L 200.00 120.00" fill="none" stroke="#000" stroke-width="2" />
<path d="M 145.00 120.00 L 170.00 100.00" fill="none" stroke="#000" stroke-width="2" />
<circle cx="145.00" cy="120.00" r="4.00" fill="none" stroke="#000" stroke-width="2" />
<circle cx="145.00" cy="120.00" r="4.00" stroke="none" fill="#000" />
<circle cx="175.00" cy="120.00" r="4.00" fill="none" stroke="#000" stroke-width="2" />
<circle cx="175.00" cy="120.00" r="4.00" stroke="none" fill="#000" />
<circle cx="120.00" cy="120.00" r="4.00" stroke="none" fill="#fff" />
<circle cx="120.00" cy="120.00" r="4.00" fill="none" stroke="#000" stroke-width="2" />
<circle cx="200.00" cy="120.00" r="4.00" stroke="none" fill="#fff" />
<circle cx="200.00" cy="120.00" r="4.00" fill="none" stroke="#000" stroke-width="2" />
<path d="M 100.00 120.00 L 120.00 120.00" fill="none" stroke="#000" stroke-width="2" />
<circle cx="100.00" cy="120.00" r="4.00" stroke="none" fill="#fff" />
<circle cx="100.00" cy="120.00" r="4.00" fill="none" stroke="#000" stroke-width="2" />
<circle cx="120.00" cy="120.00" r="4.00" stroke="none" fill="#fff" />
<circle cx="120.00" cy="120.00" r="4.00" fill="none" stroke="#000" stroke-width="2" />
<path d="M 950.00 120.00 L 970.00 120.00" fill="none" stroke="#000" stroke-width="2" />
<circle cx="985.00" cy="120.00" r="15.00" fill="none" stroke="#000" stroke-width="2" />
<circle cx="950.00" cy="120.00" r="4.00" stroke="none" fill="#fff" />
<circle cx="950.00" cy="120.00" r="4.00" fill="none" stroke="#000" stroke-width="2" />
<path d="M 850.00 180.00 L 870.00 180.00" fill="none" stroke="#000" stroke-width="2" />
<circle cx="885.00" cy="180.00" r="15.00" fill="none" stroke="#000" stroke-width="2" />
<circle cx="850.00" cy="180.00" r="4.00" stroke="none" fill="#fff" />
<circle cx="850.00" cy="180.00" r="4.00" fill="none" stroke="#000" stroke-width="2" />
<path d="M 1050.00 180.00 L 1070.00 180.00" fill="none" stroke="#000" stroke-width="2" />
<circle cx="1085.00" cy="180.00" r="15.00" fill="none" stroke="#000" stroke-width="2" />
<circle cx="1050.00" cy="180.00" r="4.00" stroke="none" fill="#fff" />
<circle cx="1050.00" cy="180.00" r="4.00" fill="none" stroke="#000" stroke-width="2" />
<path d="M 950.00 240.00 L 970.00 240.00" fill="none" stroke="#000" stroke-width="2" />
<circle cx="985.00" cy="240.00" r="15.00" fill="none" stroke="#000" stroke-width="2" />
<circle cx="950.00" cy="240.00" r="4.00" stroke="none" fill="#fff" />
<circle cx="950.00" cy="240.00" r="4.00" fill="none" stroke="#000" stroke-width="2" />
<path d="M 950.00 360.00 L 970.00 360.00" fill="none" stroke="#000" stroke-width="2" />
<circle cx="985.00" cy="360.00" r="15.00" fill="none" stroke="#000" stroke-width="2" />
<circle cx="950.00" cy="360.00" r="4.00" stroke="none" fill="#fff" />
<circle cx="950.00" cy="360.00" r="4.00" fill="none" stroke="#000" stroke-width="2" />
<path d="M 850.00 300.00 L 870.00 300.00" fill="none" stroke="#000" stroke-width="2" />
<circle cx="885.00" cy="300.00" r="15.00" fill="none" stroke="#000" stroke-width="2" />
<circle cx="850.00" cy="300.00" r="4.00" stroke="none" fill="#fff" />
<circle cx="850.00" cy="300.00" r="4.00" fill="none" stroke="#000" stroke-width="2" />
<path d="M 1050.00 300.00 L 1070.00 300.00" fill="none" stroke="#000" stroke-width="2" />
<circle cx="1085.00" cy="300.00" r="15.00" fill="none" stroke="#000" stroke-width="2" />
<circle cx="1050.00" cy="300.00" r="4.00" stroke="none" fill="#fff" />
<circle cx="1050.00" cy="300.00" r="4.00" fill="none" stroke="#000" stroke-width="2" />
<path d="M 800.00 120.00 L 950.00 120.00" fill="none" stroke="#000" stroke-width="2" />
<circle cx="800.00" cy="120.00" r="4.00" stroke="none" fill="#fff" />
<circle cx="800.00" cy="120.00" r="4.00" fill="none" stroke="#000" stroke-width="2" />
<circle cx="950.00" cy="120.00" r="4.00" stroke="none" fill="#fff" />
<circle cx="950.00" cy="120.00" r="4.00" fill="none" stroke="#000" stroke-width="2" />
<path d="M 800.00 200.00 L 850.00 200.00" fill="none" stroke="#000" stroke-width="2" />
<circle cx="800.00" cy="200.00" r="4.00" stroke="none" fill="#fff" />
<circle cx="800.00" cy="200.00" r="4.00" fill="none" stroke="#000" stroke-width="2" />
<circle cx="850.00" cy="200.00" r="4.00" stroke="none" fill="#fff" />
<circle cx="850.00" cy="200.00" r="4.00" fill="none" stroke="#000" stroke-width="2" />
<path d="M 850.00 180.00 L 850.00 200.00" fill="none" stroke="#000" stroke-width="2" />
<circle cx="850.00" cy="180.00" r="4.00" stroke="none" fill="#fff" />
<circle cx="850.00" cy="180.00" r="4.00" fill="none" stroke="#000" stroke-width="2" />
<circle cx="850.00" cy="200.00" r="4.00" stroke="none" fill="#fff" />
<circle cx="850.00" cy="200.00" r="4.00" fill="none" stroke="#000" stroke-width="2" />
<path d="M 800.00 240.00 L 950.00 240.00" fill="none" stroke="#000" stroke-width="2" />
<circle cx="800.00" cy="240.00" r="4.00" stroke="none" fill="#fff" />
<circle cx="800.00" cy="240.00" r="4.00" fill="none" stroke="#000" stroke-width="2" />
<circle cx="950.00" cy="240.00" r="4.00" stroke="none" fill="#fff" />
<circle cx="950.00" cy="240.00" r="4.00" fill="none" stroke="#000" stroke-width="2" />
<path d="M 800.00 280.00 L 850.00 280.00" fill="none" stroke="#000" stroke-width="2" />
<circle cx="800.00" cy="280.00" r="4.00" stroke="none" fill="#fff" />
<circle cx="800.00" cy="280.00" r="4.00" fill="none" stroke="#000" stroke-width="2" />
<circle cx="850.00" cy="280.00" r="4.00" stroke="none" fill="#fff" />
<circle cx="850.00" cy="280.00" r="4.00" fill="none" stroke="#000" stroke-width="2" />
<path d="M 850.00 280.00 L 850.00 300.00" fill="none" stroke="#000" stroke-width="2" />
<circle cx="850.00" cy="280.00" r="4.00" stroke="none" fill="#fff" />
<circle cx="850.00" cy="280.00" r="4.00" fill="none" stroke="#000" stroke-width="2" />
<circle cx="850.00" cy="300.00" r="4.00" stroke="none" fill="#fff" />
<circle cx="850.00" cy="300.00" r="4.00" fill="none" stroke="#000" stroke-width="2" />
<path d="M 800.00 320.00 L 1050.00 320.00" fill="none" stroke="#000" stroke-width="2" />
<circle cx="800.00" cy="320.00" r="4.00" stroke="none" fill="#fff" />
<circle cx="800.00" cy="320.00" r="4.00" fill="none" stroke="#000" stroke-width="2" />
<circle cx="1050.00" cy="320.00" r="4.00" stroke="none" fill="#fff" />
<circle cx="1050.00" cy="320.00" r="4.00" fill="none" stroke="#000" stroke-width="2" />
<path d="M 1050.00 300.00 L 1050.00 320.00" fill="none" stroke="#000" stroke-width="2" />
<circle cx="1050.00" cy="300.00" r="4.00" stroke="none" fill="#fff" />
<circle cx="1050.00" cy="300.00" r="4.00" fill="none" stroke="#000" stroke-width="2" />
<circle cx="1050.00" cy="320.00" r="4.00" stroke="none" fill="#fff" />
<circle cx="1050.00" cy="320.00" r="4.00" fill="none" stroke="#000" stroke-width="2" />
<path d="M 800.00 360.00 L 950.00 360.00" fill="none" stroke="#000" stroke-width="2" />
<circle cx="800.00" cy="360.00" r="4.00" stroke="none" fill="#fff" />
<circle cx="800.00" cy="360.00" r="4.00" fill="none" stroke="#000" stroke-width="2" />
<circle cx="950.00" cy="360.00" r="4.00" stroke="none" fill="#fff" />
<circle cx="950.00" cy="360.00" r="4.00" fill="none" stroke="#000" stroke-width="2" />
<path d="M 1050.00 180.00 L 1050.00 160.00" fill="none" stroke="#000" stroke-width="2" />
<circle cx="1050.00" cy="180.00" r="4.00" stroke="none" fill="#fff" />
<circle cx="1050.00" cy="180.00" r="4.00" fill="none" stroke="#000" stroke-width="2" />
<circle cx="1050.00" cy="160.00" r="4.00" stroke="none" fill="#fff" />
<circle cx="1050.00" cy="160.00" r="4.00" fill="none" stroke="#000" stroke-width="2" />
<path d="M 800.00 160.00 L 1050.00 160.00" fill="none" stroke="#000" stroke-width="2" />
<circle cx="800.00" cy="160.00" r="4.00" stroke="none" fill="#fff" />
<circle cx="800.00" cy="160.00" r="4.00" fill="none" stroke="#000" stroke-width="2" />
<circle cx="1050.00" cy="160.00" r="4.00" stroke="none" fill="#fff" />
<circle cx="1050.00" cy="160.00" r="4.00" fill="none" stroke="#000" stroke-width="2" />
<path d="M 260.00 60.00 L 280.00 60.00" fill="none" stroke="#000" stroke-width="2" />
<path d="M 260.00 70.00 L 280.00 70.00" fill="none" stroke="#000" stroke-width="2" />
<path d="M 260.00 80.00 L 280.00 80.00" fill="none" stroke="#000" stroke-width="2" />
<path d="M 260.00 90.00 L 280.00 90.00" fill="none" stroke="#000" stroke-width="2" />
<path d="M 280.00 55.00 L 280.00 95.00 L 305.00 95.00 L 305.00 55.00 L 280.00 55.00" stroke="none" fill="rgba(0,0,0,0.8)" />
<path d="M 280.00 55.00 L 280.00 95.00 L 305.00 95.00 L 305.00 55.00 L 280.00 55.00" fill="none" stroke="#000" stroke-width="2" />
<circle cx="260.00" cy="60.00" r="4.00" stroke="none" fill="#fff" />
<circle cx="260.00" cy="60.00" r="4.00" fill="none" stroke="#000" stroke-width="2" />
<circle cx="260.00" cy="70.00" r="4.00" stroke="none" fill="#fff" />
<circle cx="260.00" cy="70.00" r="4.00" fill="none" stroke="#000" stroke-width="2" />
<circle cx="260.00" cy="80.00" r="4.00" stroke="none" fill="#fff" />
<circle cx="260.00" cy="80.00" r="4.00" fill="none" stroke="#000" stroke-width="2" />
<circle cx="260.00" cy="90.00" r="4.00" stroke="none" fill="#fff" />
<circle cx="260.00" cy="90.00" r="4.00" fill="none" stroke="#000" stroke-width="2" />
<path d="M 220.00 120.00 L 220.00 90.00" fill="none" stroke="#000" stroke-width="2" />
<circle cx="220.00" cy="120.00" r="4.00" stroke="none" fill="#fff" />
<circle cx="220.00" cy="120.00" r="4.00" fill="none" stroke="#000" stroke-width="2" />
<circle cx="220.00" cy="90.00" r="4.00" stroke="none" fill="#fff" />
<circle cx="220.00" cy="90.00" r="4.00" fill="none" stroke="#000" stroke-width="2" />
<path d="M 220.00 90.00 L 260.00 90.00" fill="none" stroke="#000" stroke-width="2" />
<circle cx="220.00" cy="90.00" r="4.00" stroke="none" fill="#fff" />
<circle cx="220.00" cy="90.00" r="4.00" fill="none" stroke="#000" stroke-width="2" />
<circle cx="260.00" cy="90.00" r="4.00" stroke="none" fill="#fff" />
<circle cx="260.00" cy="90.00" r="4.00" fill="none" stroke="#000" stroke-width="2" />
<path d="M 220.00 120.00 L 200.00 120.00" fill="none" stroke="#000" stroke-width="2" />
<circle cx="220.00" cy="120.00" r="4.00" stroke="none" fill="#fff" />
<circle cx="220.00" cy="120.00" r="4.00" fill="none" stroke="#000" stroke-width="2" />
<circle cx="200.00" cy="120.00" r="4.00" stroke="none" fill="#fff" />
<circle cx="200.00" cy="120.00" r="4.00" fill="none" stroke="#000" stroke-width="2" />
<path d="M 220.00 120.00 L 250.00 120.00" fill="none" stroke="#000" stroke-width="2" />
<circle cx="220.00" cy="120.00" r="4.00" stroke="none" fill="#fff" />
<circle cx="220.00" cy="120.00" r="4.00" fill="none" stroke="#000" stroke-width="2" />
<circle cx="250.00" cy="120.00" r="4.00" stroke="none" fill="#fff" />
<circle cx="250.00" cy="120.00" r="4.00" fill="none" stroke="#000" stroke-width="2" />
<path d="M 760.00 160.00 L 800.00 160.00" fill="none" stroke="#000" stroke-width="2" />
<circle cx="760.00" cy="160.00" r="4.00" stroke="none" fill="#fff" />
<circle cx="760.00" cy="160.00" r="4.00" fill="none" stroke="#000" stroke-width="2" />
<circle cx="800.00" cy="160.00" r="4.00" stroke="none" fill="#fff" />
<circle cx="800.00" cy="160.00" r="4.00" fill="none" stroke="#000" stroke-width="2" />
<path d="M 760.00 160.00 L 760.00 320.00" fill="none" stroke="#000" stroke-width="2" />
<circle cx="760.00" cy="160.00" r="4.00" stroke="none" fill="#fff" />
<circle cx="760.00" cy="160.00" r="4.00" fill="none" stroke="#000" stroke-width="2" />
<circle cx="760.00" cy="320.00" r="4.00" stroke="none" fill="#fff" />
<circle cx="760.00" cy="320.00" r="4.00" fill="none" stroke="#000" stroke-width="2" />
<path d="M 760.00 320.00 L 800.00 320.00" fill="none" stroke="#000" stroke-width="2" />
<circle cx="760.00" cy="320.00" r="4.00" stroke="none" fill="#fff" />
<circle cx="760.00" cy="320.00" r="4.00" fill="none" stroke="#000" stroke-width="2" />
<circle cx="800.00" cy="320.00" r="4.00" stroke="none" fill="#fff" />
<circle cx="800.00" cy="320.00" r="4.00" fill="none" stroke="#000" stroke-width="2" />
<path d="M 800.00 120.00 L 720.00 120.00" fill="none" stroke="#000" stroke-width="2" />
<circle cx="800.00" cy="120.00" r="4.00" stroke="none" fill="#fff" />
<circle cx="800.00" cy="120.00" r="4.00" fill="none" stroke="#000" stroke-width="2" />
<circle cx="720.00" cy="120.00" r="4.00" stroke="none" fill="#fff" />
<circle cx="720.00" cy="120.00" r="4.00" fill="none" stroke="#000" stroke-width="2" />
<path d="M 720.00 120.00 L 720.00 200.00" fill="none" stroke="#000" stroke-width="2" />
<circle cx="720.00" cy="120.00" r="4.00" stroke="none" fill="#fff" />
<circle cx="720.00" cy="120.00" r="4.00" fill="none" stroke="#000" stroke-width="2" />
<circle cx="720.00" cy="200.00" r="4.00" stroke="none" fill="#fff" />
<circle cx="720.00" cy="200.00" r="4.00" fill="none" stroke="#000" stroke-width="2" />
<path d="M 720.00 200.00 L 720.00 280.00" fill="none" stroke="#000" stroke-width="2" />
<circle cx="720.00" cy="200.00" r="4.00" stroke="none" fill="#fff" />
<circle cx="720.00" cy="200.00" r="4.00" fill="none" stroke="#000" stroke-width="2" />
<circle cx="720.00" cy="280.00" r="4.00" stroke="none" fill="#fff" />
<circle cx="720.00" cy="280.00" r="4.00" fill="none" stroke="#000" stroke-width="2" />
<path d="M 720.00 280.00 L 720.00 360.00" fill="none" stroke="#000" stroke-width="2" />
<circle cx="720.00" cy="280.00" r="4.00" stroke="none" fill="#fff" />
<circle cx="720.00" cy="280.00" r="4.00" fill="none" stroke="#000" stroke-width="2" />
<circle cx="720.00" cy="360.00" r="4.00" stroke="none" fill="#fff" />
<circle cx="720.00" cy="360.00" r="4.00" fill="none" stroke="#000" stroke-width="2" />
<path d="M 720.00 360.00 L 800.00 360.00" fill="none" stroke="#000" stroke-width="2" />
<circle cx="720.00" cy="360.00" r="4.00" stroke="none" fill="#fff" />
<circle cx="720.00" cy="360.00" r="4.00" fill="none" stroke="#000" stroke-width="2" />
<circle cx="800.00" cy="360.00" r="4.00" stroke="none" fill="#fff" />
<circle cx="800.00" cy="360.00" r="4.00" fill="none" stroke="#000" stroke-width="2" />
<path d="M 720.00 280.00 L 800.00 280.00" fill="none" stroke="#000" stroke-width="2" />
<circle cx="720.00" cy="280.00" r="4.00" stroke="none" fill="#fff" />
<circle cx="720.00" cy="280.00" r="4.00" fill="none" stroke="#000" stroke-width="2" />
<circle cx="800.00" cy="280.00" r="4.00" stroke="none" fill="#fff" />
<circle cx="800.00" cy="280.00" r="4.00" fill="none" stroke="#000" stroke-width="2" />
<path d="M 720.00 200.00 L 800.00 200.00" fill="none" stroke="#000" stroke-width="2" />
<circle cx="720.00" cy="200.00" r="4.00" stroke="none" fill="#fff" />
<circle cx="720.00" cy="200.00" r="4.00" fill="none" stroke="#000" stroke-width="2" />
<circle cx="800.00" cy="200.00" r="4.00" stroke="none" fill="#fff" />
<circle cx="800.00" cy="200.00" r="4.00" fill="none" stroke="#000" stroke-width="2" />
<path d="M 100.00 320.00 L 100.00 120.00" fill="none" stroke="#000" stroke-width="2" />
<circle cx="100.00" cy="320.00" r="4.00" stroke="none" fill="#fff" />
<circle cx="100.00" cy="320.00" r="4.00" fill="none" stroke="#000" stroke-width="2" />
<circle cx="100.00" cy="120.00" r="4.00" stroke="none" fill="#fff" />
<circle cx="100.00" cy="120.00" r="4.00" fill="none" stroke="#000" stroke-width="2" />
<path d="M 760.00 320.00 L 100.00 320.00" fill="none" stroke="#000" stroke-width="2" />
<circle cx="760.00" cy="320.00" r="4.00" stroke="none" fill="#fff" />
<circle cx="760.00" cy="320.00" r="4.00" fill="none" stroke="#000" stroke-width="2" />
<circle cx="100.00" cy="320.00" r="4.00" stroke="none" fill="#fff" />
<circle cx="100.00" cy="320.00" r="4.00" fill="none" stroke="#000" stroke-width="2" />
<path d="M 440.00 200.00 L 460.00 200.00" fill="none" stroke="#000" stroke-width="2" />
<path d="M 500.00 200.00 L 520.00 200.00" fill="none" stroke="#000" stroke-width="2" />
<path d="M 460.00 180.00 L 460.00 220.00 L 490.00 200.00 L 460.00 180.00" fill="none" stroke="#000" stroke-width="2" />
<circle cx="495.00" cy="200.00" r="5.00" fill="none" stroke="#000" stroke-width="2" />
<circle cx="440.00" cy="200.00" r="4.00" stroke="none" fill="#fff" />
<circle cx="440.00" cy="200.00" r="4.00" fill="none" stroke="#000" stroke-width="2" />
<circle cx="520.00" cy="200.00" r="4.00" stroke="none" fill="#fff" />
<circle cx="520.00" cy="200.00" r="4.00" fill="none" stroke="#000" stroke-width="2" />
<path d="M 250.00 120.00 L 250.00 200.00" fill="none" stroke="#000" stroke-width="2" />
<circle cx="250.00" cy="120.00" r="4.00" stroke="none" fill="#fff" />
<circle cx="250.00" cy="120.00" r="4.00" fill="none" stroke="#000" stroke-width="2" />
<circle cx="250.00" cy="200.00" r="4.00" stroke="none" fill="#fff" />
<circle cx="250.00" cy="200.00" r="4.00" fill="none" stroke="#000" stroke-width="2" />
<path d="M 250.00 200.00 L 440.00 200.00" fill="none" stroke="#000" stroke-width="2" />
<circle cx="250.00" cy="200.00" r="4.00" stroke="none" fill="#fff" />
<circle cx="250.00" cy="200.00" r="4.00" fill="none" stroke="#000" stroke-width="2" />
<circle cx="440.00" cy="200.00" r="4.00" stroke="none" fill="#fff" />
<circle cx="440.00" cy="200.00" r="4.00" fill="none" stroke="#000" stroke-width="2" />
<path d="M 520.00 200.00 L 720.00 200.00" fill="none" stroke="#000" stroke-width="2" />
<circle cx="520.00" cy="200.00" r="4.00" stroke="none" fill="#fff" />
<circle cx="520.00" cy="200.00" r="4.00" fill="none" stroke="#000" stroke-width="2" />
<circle cx="720.00" cy="200.00" r="4.00" stroke="none" fill="#fff" />
<circle cx="720.00" cy="200.00" r="4.00" fill="none" stroke="#000" stroke-width="2" />
<path d="M 80.00 360.00 L 100.00 360.00" fill="none" stroke="#000" stroke-width="2" />
<text x="60.00" y="367.00" font-family="Arial,Helvetica,sans-serif" font-size="14" font-weight="bold" text-anchor="middle" stroke="none" fill="#000" >0</text>
<circle cx="100.00" cy="360.00" r="4.00" stroke="none" fill="#fff" />
<circle cx="100.00" cy="360.00" r="4.00" fill="none" stroke="#000" stroke-width="2" />
<path d="M 100.00 360.00 L 680.00 360.00" fill="none" stroke="#000" stroke-width="2" />
<circle cx="100.00" cy="360.00" r="4.00" stroke="none" fill="#fff" />
<circle cx="100.00" cy="360.00" r="4.00" fill="none" stroke="#000" stroke-width="2" />
<circle cx="680.00" cy="360.00" r="4.00" stroke="none" fill="#fff" />
<circle cx="680.00" cy="360.00" r="4.00" fill="none" stroke="#000" stroke-width="2" />
<path d="M 680.00 360.00 L 680.00 240.00" fill="none" stroke="#000" stroke-width="2" />
<circle cx="680.00" cy="360.00" r="4.00" stroke="none" fill="#fff" />
<circle cx="680.00" cy="360.00" r="4.00" fill="none" stroke="#000" stroke-width="2" />
<circle cx="680.00" cy="240.00" r="4.00" stroke="none" fill="#fff" />
<circle cx="680.00" cy="240.00" r="4.00" fill="none" stroke="#000" stroke-width="2" />
<path d="M 680.00 240.00 L 800.00 240.00" fill="none" stroke="#000" stroke-width="2" />
<circle cx="680.00" cy="240.00" r="4.00" stroke="none" fill="#fff" />
<circle cx="680.00" cy="240.00" r="4.00" fill="none" stroke="#000" stroke-width="2" />
<circle cx="800.00" cy="240.00" r="4.00" stroke="none" fill="#fff" />
<circle cx="800.00" cy="240.00" r="4.00" fill="none" stroke="#000" stroke-width="2" />
</g>
</svg>
