<svg xmlns="http://www.w3.org/2000/svg" width="480px" height="160px"
                viewBox="12 -1 64 20">
<g id="1" style="fill-rule:evenodd; stroke:#FFFFFF;
    stroke-width:0.25; stroke-opacity:1; stroke-linecap:butt; stroke-linejoin:miter;">
  <polygon id="haut" points=" 14.5, 1  15.5, 0  21.5, 0  22.5, 1  21.5, 2  15.5, 2" fill="#000000"/>
  <polygon id="haut droit" points=" 22.5, 1 23.5, 2 23,       8  22,       9  21,       8  21.5, 2" fill="#000000"/>
  <polygon id="bas droit" points=" 22,       9 23,      10 22.5,16  21.5,17  20.5,16  21,      10" fill="#000000"/>
  <polygon id="bas" points=" 21.5,17  20.5,18  14.5,18  13.5,17  14.5,16  20.5,16" fill="#000000"/>
  <polygon id="bas gauche" points=" 13.5,17  12.5,16  13,      10  14,       9  15,      10  14.5,16" fill="#000000"/>
  <polygon id="haut gauche" points=" 14,       9  13,       8  13.5, 2  14.5, 1  15.5, 2  15,       8" fill="#000000"/>
  <polygon id="centre" points=" 14,       9  15,       8  21,       8  22,       9  21,      10  15,      10" fill="#f0f0f0"/>
</g><g id="2" style="fill-rule:evenodd; stroke:#FFFFFF;
    stroke-width:0.25; stroke-opacity:1; stroke-linecap:butt; stroke-linejoin:miter;">
  <polygon id="haut" points=" 27.5, 1  28.5, 0  34.5, 0  35.5, 1  34.5, 2  28.5, 2" fill="#f0f0f0"/>
  <polygon id="haut droit" points=" 35.5, 1 36.5, 2 36,       8  35,       9  34,       8  34.5, 2" fill="#000000"/>
  <polygon id="bas droit" points=" 35,       9 36,      10 35.5,16  34.5,17  33.5,16  34,      10" fill="#000000"/>
  <polygon id="bas" points=" 34.5,17  33.5,18  27.5,18  26.5,17  27.5,16  33.5,16" fill="#f0f0f0"/>
  <polygon id="bas gauche" points=" 26.5,17  25.5,16  26,      10  27,       9  28,      10  27.5,16" fill="#f0f0f0"/>
  <polygon id="haut gauche" points=" 27,       9  26,       8  26.5, 2  27.5, 1  28.5, 2  28,       8" fill="#f0f0f0"/>
  <polygon id="centre" points=" 27,       9  28,       8  34,       8  35,       9  34,      10  28,      10" fill="#f0f0f0"/>
</g><g id="3" style="fill-rule:evenodd; stroke:#FFFFFF;
    stroke-width:0.25; stroke-opacity:1; stroke-linecap:butt; stroke-linejoin:miter;">
  <polygon id="haut" points=" 40.5, 1  41.5, 0  47.5, 0  48.5, 1  47.5, 2  41.5, 2" fill="#000000"/>
  <polygon id="haut droit" points=" 48.5, 1 49.5, 2 49,       8  48,       9  47,       8  47.5, 2" fill="#000000"/>
  <polygon id="bas droit" points=" 48,       9 49,      10 48.5,16  47.5,17  46.5,16  47,      10" fill="#f0f0f0"/>
  <polygon id="bas" points=" 47.5,17  46.5,18  40.5,18  39.5,17  40.5,16  46.5,16" fill="#000000"/>
  <polygon id="bas gauche" points=" 39.5,17  38.5,16  39,      10  40,       9  41,      10  40.5,16" fill="#000000"/>
  <polygon id="haut gauche" points=" 40,       9  39,       8  39.5, 2  40.5, 1  41.5, 2  41,       8" fill="#f0f0f0"/>
  <polygon id="centre" points=" 40,       9  41,       8  47,       8  48,       9  47,      10  41,      10" fill="#000000"/>
</g><g id="4" style="fill-rule:evenodd; stroke:#FFFFFF;
    stroke-width:0.25; stroke-opacity:1; stroke-linecap:butt; stroke-linejoin:miter;">
  <polygon id="haut" points=" 53.5, 1  54.5, 0  60.5, 0  61.5, 1  60.5, 2  54.5, 2" fill="#000000"/>
  <polygon id="haut droit" points=" 61.5, 1 62.5, 2 62,       8  61,       9  60,       8  60.5, 2" fill="#000000"/>
  <polygon id="bas droit" points=" 61,       9 62,      10 61.5,16  60.5,17  59.5,16  60,      10" fill="#000000"/>
  <polygon id="bas" points=" 60.5,17  59.5,18  53.5,18  52.5,17  53.5,16  59.5,16" fill="#000000"/>
  <polygon id="bas gauche" points=" 52.5,17  51.5,16  52,      10  53,       9  54,      10  53.5,16" fill="#f0f0f0"/>
  <polygon id="haut gauche" points=" 53,       9  52,       8  52.5, 2  53.5, 1  54.5, 2  54,       8" fill="#f0f0f0"/>
  <polygon id="centre" points=" 53,       9  54,       8  60,       8  61,       9  60,      10  54,      10" fill="#000000"/>
</g></svg>