<svg version="1.1" width="980" height="490" xmlns="http://www.w3.org/2000/svg">
<g>
<path d="M 80.00 120.00 L 100.00 120.00" fill="none" stroke="#ff0000" stroke-width="2" />
<text x="60.00" y="127.00" font-family="Arial,Helvetica,sans-serif" font-size="14" font-weight="bold" text-anchor="middle" stroke="none" fill="#000" >1</text>
<circle cx="100.00" cy="120.00" r="4.00" stroke="none" fill="#fff" />
<circle cx="100.00" cy="120.00" r="4.00" fill="none" stroke="#ff0000" stroke-width="2" />
<path d="M 120.00 120.00 L 200.00 120.00" fill="none" stroke="#ff0000" stroke-width="2" />
<circle cx="145.00" cy="120.00" r="4.00" fill="none" stroke="#000" stroke-width="2" />
<circle cx="145.00" cy="120.00" r="4.00" stroke="none" fill="#000" />
<circle cx="175.00" cy="120.00" r="4.00" fill="none" stroke="#000" stroke-width="2" />
<circle cx="175.00" cy="120.00" r="4.00" stroke="none" fill="#000" />
<circle cx="120.00" cy="120.00" r="4.00" stroke="none" fill="#fff" />
<circle cx="120.00" cy="120.00" r="4.00" fill="none" stroke="#ff0000" stroke-width="2" />
<circle cx="200.00" cy="120.00" r="4.00" stroke="none" fill="#fff" />
<circle cx="200.00" cy="120.00" r="4.00" fill="none" stroke="#ff0000" stroke-width="2" />
<path d="M 100.00 120.00 L 120.00 120.00" fill="none" stroke="#ff0000" stroke-width="2" />
<circle cx="100.00" cy="120.00" r="4.00" stroke="none" fill="#fff" />
<circle cx="100.00" cy="120.00" r="4.00" fill="none" stroke="#ff0000" stroke-width="2" />
<circle cx="120.00" cy="120.00" r="4.00" stroke="none" fill="#fff" />
<circle cx="120.00" cy="120.00" r="4.00" fill="none" stroke="#ff0000" stroke-width="2" />
<path d="M 750.00 120.00 L 770.00 120.00" fill="none" stroke="#000000" stroke-width="2" />
<circle cx="785.00" cy="120.00" r="15.00" fill="none" stroke="#000" stroke-width="2" />
<circle cx="750.00" cy="120.00" r="4.00" stroke="none" fill="#fff" />
<circle cx="750.00" cy="120.00" r="4.00" fill="none" stroke="#000000" stroke-width="2" />
<path d="M 650.00 180.00 L 670.00 180.00" fill="none" stroke="#000000" stroke-width="2" />
<circle cx="685.00" cy="180.00" r="15.00" fill="none" stroke="#000" stroke-width="2" />
<circle cx="650.00" cy="180.00" r="4.00" stroke="none" fill="#fff" />
<circle cx="650.00" cy="180.00" r="4.00" fill="none" stroke="#000000" stroke-width="2" />
<path d="M 850.00 180.00 L 870.00 180.00" fill="none" stroke="#ff0000" stroke-width="2" />
<circle cx="885.00" cy="180.00" r="15.00" fill="none" stroke="#000" stroke-width="2" />
<circle cx="885.00" cy="180.00" r="15.00" stroke="none" fill="red" />
<circle cx="885.00" cy="180.00" r="15.00" fill="none" stroke="#000" stroke-width="2" />
<circle cx="850.00" cy="180.00" r="4.00" stroke="none" fill="#fff" />
<circle cx="850.00" cy="180.00" r="4.00" fill="none" stroke="#ff0000" stroke-width="2" />
<path d="M 750.00 240.00 L 770.00 240.00" fill="none" stroke="#000000" stroke-width="2" />
<circle cx="785.00" cy="240.00" r="15.00" fill="none" stroke="#000" stroke-width="2" />
<circle cx="750.00" cy="240.00" r="4.00" stroke="none" fill="#fff" />
<circle cx="750.00" cy="240.00" r="4.00" fill="none" stroke="#000000" stroke-width="2" />
<path d="M 750.00 360.00 L 770.00 360.00" fill="none" stroke="#000000" stroke-width="2" />
<circle cx="785.00" cy="360.00" r="15.00" fill="none" stroke="#000" stroke-width="2" />
<circle cx="750.00" cy="360.00" r="4.00" stroke="none" fill="#fff" />
<circle cx="750.00" cy="360.00" r="4.00" fill="none" stroke="#000000" stroke-width="2" />
<path d="M 650.00 300.00 L 670.00 300.00" fill="none" stroke="#000000" stroke-width="2" />
<circle cx="685.00" cy="300.00" r="15.00" fill="none" stroke="#000" stroke-width="2" />
<circle cx="650.00" cy="300.00" r="4.00" stroke="none" fill="#fff" />
<circle cx="650.00" cy="300.00" r="4.00" fill="none" stroke="#000000" stroke-width="2" />
<path d="M 850.00 300.00 L 870.00 300.00" fill="none" stroke="#ff0000" stroke-width="2" />
<circle cx="885.00" cy="300.00" r="15.00" fill="none" stroke="#000" stroke-width="2" />
<circle cx="885.00" cy="300.00" r="15.00" stroke="none" fill="red" />
<circle cx="885.00" cy="300.00" r="15.00" fill="none" stroke="#000" stroke-width="2" />
<circle cx="850.00" cy="300.00" r="4.00" stroke="none" fill="#fff" />
<circle cx="850.00" cy="300.00" r="4.00" fill="none" stroke="#ff0000" stroke-width="2" />
<path d="M 600.00 120.00 L 750.00 120.00" fill="none" stroke="#000000" stroke-width="2" />
<circle cx="600.00" cy="120.00" r="4.00" stroke="none" fill="#fff" />
<circle cx="600.00" cy="120.00" r="4.00" fill="none" stroke="#000000" stroke-width="2" />
<circle cx="750.00" cy="120.00" r="4.00" stroke="none" fill="#fff" />
<circle cx="750.00" cy="120.00" r="4.00" fill="none" stroke="#000000" stroke-width="2" />
<path d="M 600.00 200.00 L 650.00 200.00" fill="none" stroke="#000000" stroke-width="2" />
<circle cx="600.00" cy="200.00" r="4.00" stroke="none" fill="#fff" />
<circle cx="600.00" cy="200.00" r="4.00" fill="none" stroke="#000000" stroke-width="2" />
<circle cx="650.00" cy="200.00" r="4.00" stroke="none" fill="#fff" />
<circle cx="650.00" cy="200.00" r="4.00" fill="none" stroke="#000000" stroke-width="2" />
<path d="M 650.00 180.00 L 650.00 200.00" fill="none" stroke="#000000" stroke-width="2" />
<circle cx="650.00" cy="180.00" r="4.00" stroke="none" fill="#fff" />
<circle cx="650.00" cy="180.00" r="4.00" fill="none" stroke="#000000" stroke-width="2" />
<circle cx="650.00" cy="200.00" r="4.00" stroke="none" fill="#fff" />
<circle cx="650.00" cy="200.00" r="4.00" fill="none" stroke="#000000" stroke-width="2" />
<path d="M 600.00 240.00 L 750.00 240.00" fill="none" stroke="#000000" stroke-width="2" />
<circle cx="600.00" cy="240.00" r="4.00" stroke="none" fill="#fff" />
<circle cx="600.00" cy="240.00" r="4.00" fill="none" stroke="#000000" stroke-width="2" />
<circle cx="750.00" cy="240.00" r="4.00" stroke="none" fill="#fff" />
<circle cx="750.00" cy="240.00" r="4.00" fill="none" stroke="#000000" stroke-width="2" />
<path d="M 600.00 280.00 L 650.00 280.00" fill="none" stroke="#000000" stroke-width="2" />
<circle cx="600.00" cy="280.00" r="4.00" stroke="none" fill="#fff" />
<circle cx="600.00" cy="280.00" r="4.00" fill="none" stroke="#000000" stroke-width="2" />
<circle cx="650.00" cy="280.00" r="4.00" stroke="none" fill="#fff" />
<circle cx="650.00" cy="280.00" r="4.00" fill="none" stroke="#000000" stroke-width="2" />
<path d="M 650.00 280.00 L 650.00 300.00" fill="none" stroke="#000000" stroke-width="2" />
<circle cx="650.00" cy="280.00" r="4.00" stroke="none" fill="#fff" />
<circle cx="650.00" cy="280.00" r="4.00" fill="none" stroke="#000000" stroke-width="2" />
<circle cx="650.00" cy="300.00" r="4.00" stroke="none" fill="#fff" />
<circle cx="650.00" cy="300.00" r="4.00" fill="none" stroke="#000000" stroke-width="2" />
<path d="M 600.00 320.00 L 850.00 320.00" fill="none" stroke="#ff0000" stroke-width="2" />
<circle cx="600.00" cy="320.00" r="4.00" stroke="none" fill="#fff" />
<circle cx="600.00" cy="320.00" r="4.00" fill="none" stroke="#ff0000" stroke-width="2" />
<circle cx="850.00" cy="320.00" r="4.00" stroke="none" fill="#fff" />
<circle cx="850.00" cy="320.00" r="4.00" fill="none" stroke="#ff0000" stroke-width="2" />
<path d="M 850.00 300.00 L 850.00 320.00" fill="none" stroke="#ff0000" stroke-width="2" />
<circle cx="850.00" cy="300.00" r="4.00" stroke="none" fill="#fff" />
<circle cx="850.00" cy="300.00" r="4.00" fill="none" stroke="#ff0000" stroke-width="2" />
<circle cx="850.00" cy="320.00" r="4.00" stroke="none" fill="#fff" />
<circle cx="850.00" cy="320.00" r="4.00" fill="none" stroke="#ff0000" stroke-width="2" />
<path d="M 600.00 360.00 L 750.00 360.00" fill="none" stroke="#000000" stroke-width="2" />
<circle cx="600.00" cy="360.00" r="4.00" stroke="none" fill="#fff" />
<circle cx="600.00" cy="360.00" r="4.00" fill="none" stroke="#000000" stroke-width="2" />
<circle cx="750.00" cy="360.00" r="4.00" stroke="none" fill="#fff" />
<circle cx="750.00" cy="360.00" r="4.00" fill="none" stroke="#000000" stroke-width="2" />
<path d="M 850.00 180.00 L 850.00 160.00" fill="none" stroke="#ff0000" stroke-width="2" />
<circle cx="850.00" cy="180.00" r="4.00" stroke="none" fill="#fff" />
<circle cx="850.00" cy="180.00" r="4.00" fill="none" stroke="#ff0000" stroke-width="2" />
<circle cx="850.00" cy="160.00" r="4.00" stroke="none" fill="#fff" />
<circle cx="850.00" cy="160.00" r="4.00" fill="none" stroke="#ff0000" stroke-width="2" />
<path d="M 600.00 160.00 L 850.00 160.00" fill="none" stroke="#ff0000" stroke-width="2" />
<circle cx="600.00" cy="160.00" r="4.00" stroke="none" fill="#fff" />
<circle cx="600.00" cy="160.00" r="4.00" fill="none" stroke="#ff0000" stroke-width="2" />
<circle cx="850.00" cy="160.00" r="4.00" stroke="none" fill="#fff" />
<circle cx="850.00" cy="160.00" r="4.00" fill="none" stroke="#ff0000" stroke-width="2" />
<path d="M 360.00 240.00 L 380.00 240.00" fill="none" stroke="#ff0000" stroke-width="2" />
<path d="M 420.00 240.00 L 440.00 240.00" fill="none" stroke="#000000" stroke-width="2" />
<path d="M 380.00 220.00 L 380.00 260.00 L 410.00 240.00 L 380.00 220.00" fill="none" stroke="#000" stroke-width="2" />
<circle cx="415.00" cy="240.00" r="5.00" fill="none" stroke="#000" stroke-width="2" />
<circle cx="360.00" cy="240.00" r="4.00" stroke="none" fill="#fff" />
<circle cx="360.00" cy="240.00" r="4.00" fill="none" stroke="#ff0000" stroke-width="2" />
<circle cx="440.00" cy="240.00" r="4.00" stroke="none" fill="#fff" />
<circle cx="440.00" cy="240.00" r="4.00" fill="none" stroke="#000000" stroke-width="2" />
<path d="M 440.00 120.00 L 600.00 120.00" fill="none" stroke="#000000" stroke-width="2" />
<circle cx="440.00" cy="120.00" r="4.00" stroke="none" fill="#fff" />
<circle cx="440.00" cy="120.00" r="4.00" fill="none" stroke="#000000" stroke-width="2" />
<circle cx="600.00" cy="120.00" r="4.00" stroke="none" fill="#fff" />
<circle cx="600.00" cy="120.00" r="4.00" fill="none" stroke="#000000" stroke-width="2" />
<path d="M 600.00 200.00 L 440.00 200.00" fill="none" stroke="#000000" stroke-width="2" />
<circle cx="600.00" cy="200.00" r="4.00" stroke="none" fill="#fff" />
<circle cx="600.00" cy="200.00" r="4.00" fill="none" stroke="#000000" stroke-width="2" />
<circle cx="440.00" cy="200.00" r="4.00" stroke="none" fill="#fff" />
<circle cx="440.00" cy="200.00" r="4.00" fill="none" stroke="#000000" stroke-width="2" />
<path d="M 600.00 280.00 L 440.00 280.00" fill="none" stroke="#000000" stroke-width="2" />
<circle cx="600.00" cy="280.00" r="4.00" stroke="none" fill="#fff" />
<circle cx="600.00" cy="280.00" r="4.00" fill="none" stroke="#000000" stroke-width="2" />
<circle cx="440.00" cy="280.00" r="4.00" stroke="none" fill="#fff" />
<circle cx="440.00" cy="280.00" r="4.00" fill="none" stroke="#000000" stroke-width="2" />
<path d="M 600.00 360.00 L 440.00 360.00" fill="none" stroke="#000000" stroke-width="2" />
<circle cx="600.00" cy="360.00" r="4.00" stroke="none" fill="#fff" />
<circle cx="600.00" cy="360.00" r="4.00" fill="none" stroke="#000000" stroke-width="2" />
<circle cx="440.00" cy="360.00" r="4.00" stroke="none" fill="#fff" />
<circle cx="440.00" cy="360.00" r="4.00" fill="none" stroke="#000000" stroke-width="2" />
<path d="M 440.00 360.00 L 440.00 280.00" fill="none" stroke="#000000" stroke-width="2" />
<circle cx="440.00" cy="360.00" r="4.00" stroke="none" fill="#fff" />
<circle cx="440.00" cy="360.00" r="4.00" fill="none" stroke="#000000" stroke-width="2" />
<circle cx="440.00" cy="280.00" r="4.00" stroke="none" fill="#fff" />
<circle cx="440.00" cy="280.00" r="4.00" fill="none" stroke="#000000" stroke-width="2" />
<path d="M 440.00 280.00 L 440.00 240.00" fill="none" stroke="#000000" stroke-width="2" />
<circle cx="440.00" cy="280.00" r="4.00" stroke="none" fill="#fff" />
<circle cx="440.00" cy="280.00" r="4.00" fill="none" stroke="#000000" stroke-width="2" />
<circle cx="440.00" cy="240.00" r="4.00" stroke="none" fill="#fff" />
<circle cx="440.00" cy="240.00" r="4.00" fill="none" stroke="#000000" stroke-width="2" />
<path d="M 440.00 240.00 L 440.00 200.00" fill="none" stroke="#000000" stroke-width="2" />
<circle cx="440.00" cy="240.00" r="4.00" stroke="none" fill="#fff" />
<circle cx="440.00" cy="240.00" r="4.00" fill="none" stroke="#000000" stroke-width="2" />
<circle cx="440.00" cy="200.00" r="4.00" stroke="none" fill="#fff" />
<circle cx="440.00" cy="200.00" r="4.00" fill="none" stroke="#000000" stroke-width="2" />
<path d="M 440.00 200.00 L 440.00 120.00" fill="none" stroke="#000000" stroke-width="2" />
<circle cx="440.00" cy="200.00" r="4.00" stroke="none" fill="#fff" />
<circle cx="440.00" cy="200.00" r="4.00" fill="none" stroke="#000000" stroke-width="2" />
<circle cx="440.00" cy="120.00" r="4.00" stroke="none" fill="#fff" />
<circle cx="440.00" cy="120.00" r="4.00" fill="none" stroke="#000000" stroke-width="2" />
<path d="M 320.00 120.00 L 320.00 240.00" fill="none" stroke="#ff0000" stroke-width="2" />
<circle cx="320.00" cy="120.00" r="4.00" stroke="none" fill="#fff" />
<circle cx="320.00" cy="120.00" r="4.00" fill="none" stroke="#ff0000" stroke-width="2" />
<circle cx="320.00" cy="240.00" r="4.00" stroke="none" fill="#fff" />
<circle cx="320.00" cy="240.00" r="4.00" fill="none" stroke="#ff0000" stroke-width="2" />
<path d="M 320.00 240.00 L 360.00 240.00" fill="none" stroke="#ff0000" stroke-width="2" />
<circle cx="320.00" cy="240.00" r="4.00" stroke="none" fill="#fff" />
<circle cx="320.00" cy="240.00" r="4.00" fill="none" stroke="#ff0000" stroke-width="2" />
<circle cx="360.00" cy="240.00" r="4.00" stroke="none" fill="#fff" />
<circle cx="360.00" cy="240.00" r="4.00" fill="none" stroke="#ff0000" stroke-width="2" />
<path d="M 100.00 120.00 L 100.00 400.00" fill="none" stroke="#ff0000" stroke-width="2" />
<circle cx="100.00" cy="120.00" r="4.00" stroke="none" fill="#fff" />
<circle cx="100.00" cy="120.00" r="4.00" fill="none" stroke="#ff0000" stroke-width="2" />
<circle cx="100.00" cy="400.00" r="4.00" stroke="none" fill="#fff" />
<circle cx="100.00" cy="400.00" r="4.00" fill="none" stroke="#ff0000" stroke-width="2" />
<path d="M 100.00 400.00 L 480.00 400.00" fill="none" stroke="#ff0000" stroke-width="2" />
<circle cx="100.00" cy="400.00" r="4.00" stroke="none" fill="#fff" />
<circle cx="100.00" cy="400.00" r="4.00" fill="none" stroke="#ff0000" stroke-width="2" />
<circle cx="480.00" cy="400.00" r="4.00" stroke="none" fill="#fff" />
<circle cx="480.00" cy="400.00" r="4.00" fill="none" stroke="#ff0000" stroke-width="2" />
<path d="M 480.00 400.00 L 480.00 320.00" fill="none" stroke="#ff0000" stroke-width="2" />
<circle cx="480.00" cy="400.00" r="4.00" stroke="none" fill="#fff" />
<circle cx="480.00" cy="400.00" r="4.00" fill="none" stroke="#ff0000" stroke-width="2" />
<circle cx="480.00" cy="320.00" r="4.00" stroke="none" fill="#fff" />
<circle cx="480.00" cy="320.00" r="4.00" fill="none" stroke="#ff0000" stroke-width="2" />
<path d="M 480.00 320.00 L 600.00 320.00" fill="none" stroke="#ff0000" stroke-width="2" />
<circle cx="480.00" cy="320.00" r="4.00" stroke="none" fill="#fff" />
<circle cx="480.00" cy="320.00" r="4.00" fill="none" stroke="#ff0000" stroke-width="2" />
<circle cx="600.00" cy="320.00" r="4.00" stroke="none" fill="#fff" />
<circle cx="600.00" cy="320.00" r="4.00" fill="none" stroke="#ff0000" stroke-width="2" />
<path d="M 480.00 320.00 L 480.00 160.00" fill="none" stroke="#ff0000" stroke-width="2" />
<circle cx="480.00" cy="320.00" r="4.00" stroke="none" fill="#fff" />
<circle cx="480.00" cy="320.00" r="4.00" fill="none" stroke="#ff0000" stroke-width="2" />
<circle cx="480.00" cy="160.00" r="4.00" stroke="none" fill="#fff" />
<circle cx="480.00" cy="160.00" r="4.00" fill="none" stroke="#ff0000" stroke-width="2" />
<path d="M 480.00 160.00 L 600.00 160.00" fill="none" stroke="#ff0000" stroke-width="2" />
<circle cx="480.00" cy="160.00" r="4.00" stroke="none" fill="#fff" />
<circle cx="480.00" cy="160.00" r="4.00" fill="none" stroke="#ff0000" stroke-width="2" />
<circle cx="600.00" cy="160.00" r="4.00" stroke="none" fill="#fff" />
<circle cx="600.00" cy="160.00" r="4.00" fill="none" stroke="#ff0000" stroke-width="2" />
<path d="M 80.00 440.00 L 100.00 440.00" fill="none" stroke="#000000" stroke-width="2" />
<text x="60.00" y="447.00" font-family="Arial,Helvetica,sans-serif" font-size="14" font-weight="bold" text-anchor="middle" stroke="none" fill="#000" >0</text>
<circle cx="100.00" cy="440.00" r="4.00" stroke="none" fill="#fff" />
<circle cx="100.00" cy="440.00" r="4.00" fill="none" stroke="#000000" stroke-width="2" />
<path d="M 100.00 440.00 L 520.00 440.00" fill="none" stroke="#000000" stroke-width="2" />
<circle cx="100.00" cy="440.00" r="4.00" stroke="none" fill="#fff" />
<circle cx="100.00" cy="440.00" r="4.00" fill="none" stroke="#000000" stroke-width="2" />
<circle cx="520.00" cy="440.00" r="4.00" stroke="none" fill="#fff" />
<circle cx="520.00" cy="440.00" r="4.00" fill="none" stroke="#000000" stroke-width="2" />
<path d="M 520.00 240.00 L 520.00 440.00" fill="none" stroke="#000000" stroke-width="2" />
<circle cx="520.00" cy="240.00" r="4.00" stroke="none" fill="#fff" />
<circle cx="520.00" cy="240.00" r="4.00" fill="none" stroke="#000000" stroke-width="2" />
<circle cx="520.00" cy="440.00" r="4.00" stroke="none" fill="#fff" />
<circle cx="520.00" cy="440.00" r="4.00" fill="none" stroke="#000000" stroke-width="2" />
<path d="M 520.00 240.00 L 600.00 240.00" fill="none" stroke="#000000" stroke-width="2" />
<circle cx="520.00" cy="240.00" r="4.00" stroke="none" fill="#fff" />
<circle cx="520.00" cy="240.00" r="4.00" fill="none" stroke="#000000" stroke-width="2" />
<circle cx="600.00" cy="240.00" r="4.00" stroke="none" fill="#fff" />
<circle cx="600.00" cy="240.00" r="4.00" fill="none" stroke="#000000" stroke-width="2" />
<path d="M 260.00 60.00 L 280.00 60.00" fill="none" stroke="#000000" stroke-width="2" />
<path d="M 260.00 70.00 L 280.00 70.00" fill="none" stroke="#000000" stroke-width="2" />
<path d="M 260.00 80.00 L 280.00 80.00" fill="none" stroke="#000000" stroke-width="2" />
<path d="M 260.00 90.00 L 280.00 90.00" fill="none" stroke="#ff0000" stroke-width="2" />
<path d="M 280.00 55.00 L 280.00 95.00 L 305.00 95.00 L 305.00 55.00 L 280.00 55.00" stroke="none" fill="rgba(0,0,0,0.8)" />
<path d="M 280.00 55.00 L 280.00 95.00 L 305.00 95.00 L 305.00 55.00 L 280.00 55.00" fill="none" stroke="#000" stroke-width="2" />
<text x="292.00" y="89.00" font-family="monospace" font-size="26" font-weight="bold" text-anchor="middle" stroke="none" fill="#ff4444" >1</text>
<circle cx="260.00" cy="60.00" r="4.00" stroke="none" fill="#fff" />
<circle cx="260.00" cy="60.00" r="4.00" fill="none" stroke="#000000" stroke-width="2" />
<circle cx="260.00" cy="70.00" r="4.00" stroke="none" fill="#fff" />
<circle cx="260.00" cy="70.00" r="4.00" fill="none" stroke="#000000" stroke-width="2" />
<circle cx="260.00" cy="80.00" r="4.00" stroke="none" fill="#fff" />
<circle cx="260.00" cy="80.00" r="4.00" fill="none" stroke="#000000" stroke-width="2" />
<circle cx="260.00" cy="90.00" r="4.00" stroke="none" fill="#fff" />
<circle cx="260.00" cy="90.00" r="4.00" fill="none" stroke="#ff0000" stroke-width="2" />
<path d="M 220.00 120.00 L 220.00 90.00" fill="none" stroke="#ff0000" stroke-width="2" />
<circle cx="220.00" cy="120.00" r="4.00" stroke="none" fill="#fff" />
<circle cx="220.00" cy="120.00" r="4.00" fill="none" stroke="#ff0000" stroke-width="2" />
<circle cx="220.00" cy="90.00" r="4.00" stroke="none" fill="#fff" />
<circle cx="220.00" cy="90.00" r="4.00" fill="none" stroke="#ff0000" stroke-width="2" />
<path d="M 220.00 90.00 L 260.00 90.00" fill="none" stroke="#ff0000" stroke-width="2" />
<circle cx="220.00" cy="90.00" r="4.00" stroke="none" fill="#fff" />
<circle cx="220.00" cy="90.00" r="4.00" fill="none" stroke="#ff0000" stroke-width="2" />
<circle cx="260.00" cy="90.00" r="4.00" stroke="none" fill="#fff" />
<circle cx="260.00" cy="90.00" r="4.00" fill="none" stroke="#ff0000" stroke-width="2" />
<path d="M 220.00 120.00 L 200.00 120.00" fill="none" stroke="#ff0000" stroke-width="2" />
<circle cx="220.00" cy="120.00" r="4.00" stroke="none" fill="#fff" />
<circle cx="220.00" cy="120.00" r="4.00" fill="none" stroke="#ff0000" stroke-width="2" />
<circle cx="200.00" cy="120.00" r="4.00" stroke="none" fill="#fff" />
<circle cx="200.00" cy="120.00" r="4.00" fill="none" stroke="#ff0000" stroke-width="2" />
<path d="M 220.00 120.00 L 320.00 120.00" fill="none" stroke="#ff0000" stroke-width="2" />
<circle cx="220.00" cy="120.00" r="4.00" stroke="none" fill="#fff" />
<circle cx="220.00" cy="120.00" r="4.00" fill="none" stroke="#ff0000" stroke-width="2" />
<circle cx="320.00" cy="120.00" r="4.00" stroke="none" fill="#fff" />
<circle cx="320.00" cy="120.00" r="4.00" fill="none" stroke="#ff0000" stroke-width="2" />
</g>
</svg>
