<svg width="1180" height="430" xmlns="http://www.w3.org/2000/svg">
<g>
<path d="M 80.00 120.00 L 100.00 120.00" fill="none" stroke="#000" stroke-width="2" />
<text x="60.00" y="127.00" font-family="Arial,Helvetica,sans-serif" font-size="14" font-weight="bold" text-anchor="middle" stroke="none" fill="#000" >1</text>
<circle cx="100.00" cy="120.00" r="4.00" stroke="none" fill="#fff" />
<circle cx="100.00" cy="120.00" r="4.00" fill="none" stroke="#000" stroke-width="2" />
<path d="M 120.00 120.00 L 145.00 120.00" fill="none" stroke="#000" stroke-width="2" />
<path d="M 175.00 120.00 L 200.00 120.00" fill="none" stroke="#000" stroke-width="2" />
<path d="M 145.00 120.00 L 170.00 100.00" fill="none" stroke="#000" stroke-width="2" />
<circle cx="145.00" cy="120.00" r="4.00" fill="none" stroke="#000" stroke-width="2" />
<circle cx="145.00" cy="120.00" r="4.00" stroke="none" fill="#000" />
<circle cx="175.00" cy="120.00" r="4.00" fill="none" stroke="#000" stroke-width="2" />
<circle cx="175.00" cy="120.00" r="4.00" stroke="none" fill="#000" />
<circle cx="120.00" cy="120.00" r="4.00" stroke="none" fill="#fff" />
<circle cx="120.00" cy="120.00" r="4.00" fill="none" stroke="#000" stroke-width="2" />
<circle cx="200.00" cy="120.00" r="4.00" stroke="none" fill="#fff" />
<circle cx="200.00" cy="120.00" r="4.00" fill="none" stroke="#000" stroke-width="2" />
<path d="M 100.00 120.00 L 120.00 120.00" fill="none" stroke="#000" stroke-width="2" />
<circle cx="100.00" cy="120.00" r="4.00" stroke="none" fill="#fff" />
<circle cx="100.00" cy="120.00" r="4.00" fill="none" stroke="#000" stroke-width="2" />
<circle cx="120.00" cy="120.00" r="4.00" stroke="none" fill="#fff" />
<circle cx="120.00" cy="120.00" r="4.00" fill="none" stroke="#000" stroke-width="2" />
<path d="M 950.00 120.00 L 970.00 120.00" fill="none" stroke="#000" stroke-width="2" />
<circle cx="985.00" cy="120.00" r="15.00" fill="none" stroke="#000" stroke-width="2" />
<circle cx="950.00" cy="120.00" r="4.00" stroke="none" fill="#fff" />
<circle cx="950.00" cy="120.00" r="4.00" fill="none" stroke="#000" stroke-width="2" />
<path d="M 850.00 180.00 L 870.00 180.00" fill="none" stroke="#000" stroke-width="2" />
<circle cx="885.00" cy="180.00" r="15.00" fill="none" stroke="#000" stroke-width="2" />
<circle cx="850.00" cy="180.00" r="4.00" stroke="none" fill="#fff" />
<circle cx="850.00" cy="180.00" r="4.00" fill="none" stroke="#000" stroke-width="2" />
<path d="M 1050.00 180.00 L 1070.00 180.00" fill="none" stroke="#000" stroke-width="2" />
<circle cx="1085.00" cy="180.00" r="15.00" fill="none" stroke="#000" stroke-width="2" />
<circle cx="1050.00" cy="180.00" r="4.00" stroke="none" fill="#fff" />
<circle cx="1050.00" cy="180.00" r="4.00" fill="none" stroke="#000" stroke-width="2" />
<path d="M 950.00 240.00 L 970.00 240.00" fill="none" stroke="#000" stroke-width="2" />
<circle cx="985.00" cy="240.00" r="15.00" fill="none" stroke="#000" stroke-width="2" />
<circle cx="950.00" cy="240.00" r="4.00" stroke="none" fill="#fff" />
<circle cx="950.00" cy="240.00" r="4.00" fill="none" stroke="#000" stroke-width="2" />
<path d="M 950.00 360.00 L 970.00 360.00" fill="none" stroke="#000" stroke-width="2" />
<circle cx="985.00" cy="360.00" r="15.00" fill="none" stroke="#000" stroke-width="2" />
<circle cx="950.00" cy="360.00" r="4.00" stroke="none" fill="#fff" />
<circle cx="950.00" cy="360.00" r="4.00" fill="none" stroke="#000" stroke-width="2" />
<path d="M 850.00 300.00 L 870.00 300.00" fill="none" stroke="#000" stroke-width="2" />
<circle cx="885.00" cy="300.00" r="15.00" fill="none" stroke="#000" stroke-width="2" />
<circle cx="850.00" cy="300.00" r="4.00" stroke="none" fill="#fff" />
<circle cx="850.00" cy="300.00" r="4.00" fill="none" stroke="#000" stroke-width="2" />
<path d="M 1050.00 300.00 L 1070.00 300.00" fill="none" stroke="#000" stroke-width="2" />
<circle cx="1085.00" cy="300.00" r="15.00" fill="none" stroke="#000" stroke-width="2" />
<circle cx="1050.00" cy="300.00" r="4.00" stroke="none" fill="#fff" />
<circle cx="1050.00" cy="300.00" r="4.00" fill="none" stroke="#000" stroke-width="2" />
<path d="M 800.00 120.00 L 950.00 120.00" fill="none" stroke="#000" stroke-width="2" />
<circle cx="800.00" cy="120.00" r="4.00" stroke="none" fill="#fff" />
<circle cx="800.00" cy="120.00" r="4.00" fill="none" stroke="#000" stroke-width="2" />
<circle cx="950.00" cy="120.00" r="4.00" stroke="none" fill="#fff" />
<circle cx="950.00" cy="120.00" r="4.00" fill="none" stroke="#000" stroke-width="2" />
<path d="M 800.00 200.00 L 850.00 200.00" fill="none" stroke="#000" stroke-width="2" />
<circle cx="800.00" cy="200.00" r="4.00" stroke="none" fill="#fff" />
<circle cx="800.00" cy="200.00" r="4.00" fill="none" stroke="#000" stroke-width="2" />
<circle cx="850.00" cy="200.00" r="4.00" stroke="none" fill="#fff" />
<circle cx="850.00" cy="200.00" r="4.00" fill="none" stroke="#000" stroke-width="2" />
<path d="M 850.00 180.00 L 850.00 200.00" fill="none" stroke="#000" stroke-width="2" />
<circle cx="850.00" cy="180.00" r="4.00" stroke="none" fill="#fff" />
<circle cx="850.00" cy="180.00" r="4.00" fill="none" stroke="#000" stroke-width="2" />
<circle cx="850.00" cy="200.00" r="4.00" stroke="none" fill="#fff" />
<circle cx="850.00" cy="200.00" r="4.00" fill="none" stroke="#000" stroke-width="2" />
<path d="M 800.00 240.00 L 950.00 240.00" fill="none" stroke="#000" stroke-width="2" />
<circle cx="800.00" cy="240.00" r="4.00" stroke="none" fill="#fff" />
<circle cx="800.00" cy="240.00" r="4.00" fill="none" stroke="#000" stroke-width="2" />
<circle cx="950.00" cy="240.00" r="4.00" stroke="none" fill="#fff" />
<circle cx="950.00" cy="240.00" r="4.00" fill="none" stroke="#000" stroke-width="2" />
<path d="M 800.00 280.00 L 850.00 280.00" fill="none" stroke="#000" stroke-width="2" />
<circle cx="800.00" cy="280.00" r="4.00" stroke="none" fill="#fff" />
<circle cx="800.00" cy="280.00" r="4.00" fill="none" stroke="#000" stroke-width="2" />
<circle cx="850.00" cy="280.00" r="4.00" stroke="none" fill="#fff" />
<circle cx="850.00" cy="280.00" r="4.00" fill="none" stroke="#000" stroke-width="2" />
<path d="M 850.00 280.00 L 850.00 300.00" fill="none" stroke="#000" stroke-width="2" />
<circle cx="850.00" cy="280.00" r="4.00" stroke="none" fill="#fff" />
<circle cx="850.00" cy="280.00" r="4.00" fill="none" stroke="#000" stroke-width="2" />
<circle cx="850.00" cy="300.00" r="4.00" stroke="none" fill="#fff" />
<circle cx="850.00" cy="300.00" r="4.00" fill="none" stroke="#000" stroke-width="2" />
<path d="M 800.00 320.00 L 1050.00 320.00" fill="none" stroke="#000" stroke-width="2" />
<circle cx="800.00" cy="320.00" r="4.00" stroke="none" fill="#fff" />
<circle cx="800.00" cy="320.00" r="4.00" fill="none" stroke="#000" stroke-width="2" />
<circle cx="1050.00" cy="320.00" r="4.00" stroke="none" fill="#fff" />
<circle cx="1050.00" cy="320.00" r="4.00" fill="none" stroke="#000" stroke-width="2" />
<path d="M 1050.00 300.00 L 1050.00 320.00" fill="none" stroke="#000" stroke-width="2" />
<circle cx="1050.00" cy="300.00" r="4.00" stroke="none" fill="#fff" />
<circle cx="1050.00" cy="300.00" r="4.00" fill="none" stroke="#000" stroke-width="2" />
<circle cx="1050.00" cy="320.00" r="4.00" stroke="none" fill="#fff" />
<circle cx="1050.00" cy="320.00" r="4.00" fill="none" stroke="#000" stroke-width="2" />
<path d="M 800.00 360.00 L 950.00 360.00" fill="none" stroke="#000" stroke-width="2" />
<circle cx="800.00" cy="360.00" r="4.00" stroke="none" fill="#fff" />
<circle cx="800.00" cy="360.00" r="4.00" fill="none" stroke="#000" stroke-width="2" />
<circle cx="950.00" cy="360.00" r="4.00" stroke="none" fill="#fff" />
<circle cx="950.00" cy="360.00" r="4.00" fill="none" stroke="#000" stroke-width="2" />
<path d="M 1050.00 180.00 L 1050.00 160.00" fill="none" stroke="#000" stroke-width="2" />
<circle cx="1050.00" cy="180.00" r="4.00" stroke="none" fill="#fff" />
<circle cx="1050.00" cy="180.00" r="4.00" fill="none" stroke="#000" stroke-width="2" />
<circle cx="1050.00" cy="160.00" r="4.00" stroke="none" fill="#fff" />
<circle cx="1050.00" cy="160.00" r="4.00" fill="none" stroke="#000" stroke-width="2" />
<path d="M 800.00 160.00 L 1050.00 160.00" fill="none" stroke="#000" stroke-width="2" />
<circle cx="800.00" cy="160.00" r="4.00" stroke="none" fill="#fff" />
<circle cx="800.00" cy="160.00" r="4.00" fill="none" stroke="#000" stroke-width="2" />
<circle cx="1050.00" cy="160.00" r="4.00" stroke="none" fill="#fff" />
<circle cx="1050.00" cy="160.00" r="4.00" fill="none" stroke="#000" stroke-width="2" />
<path d="M 260.00 60.00 L 280.00 60.00" fill="none" stroke="#000" stroke-width="2" />
<path d="M 260.00 70.00 L 280.00 70.00" fill="none" stroke="#000" stroke-width="2" />
<path d="M 260.00 80.00 L 280.00 80.00" fill="none" stroke="#000" stroke-width="2" />
<path d="M 260.00 90.00 L 280.00 90.00" fill="none" stroke="#000" stroke-width="2" />
<path d="M 280.00 55.00 L 280.00 95.00 L 305.00 95.00 L 305.00 55.00 L 280.00 55.00" stroke="none" fill="rgba(0,0,0,0.8)" />
<path d="M 280.00 55.00 L 280.00 95.00 L 305.00 95.00 L 305.00 55.00 L 280.00 55.00" fill="none" stroke="#000" stroke-width="2" />
<circle cx="260.00" cy="60.00" r="4.00" stroke="none" fill="#fff" />
<circle cx="260.00" cy="60.00" r="4.00" fill="none" stroke="#000" stroke-width="2" />
<circle cx="260.00" cy="70.00" r="4.00" stroke="none" fill="#fff" />
<circle cx="260.00" cy="70.00" r="4.00" fill="none" stroke="#000" stroke-width="2" />
<circle cx="260.00" cy="80.00" r="4.00" stroke="none" fill="#fff" />
<circle cx="260.00" cy="80.00" r="4.00" fill="none" stroke="#000" stroke-width="2" />
<circle cx="260.00" cy="90.00" r="4.00" stroke="none" fill="#fff" />
<circle cx="260.00" cy="90.00" r="4.00" fill="none" stroke="#000" stroke-width="2" />
<path d="M 220.00 120.00 L 220.00 90.00" fill="none" stroke="#000" stroke-width="2" />
<circle cx="220.00" cy="120.00" r="4.00" stroke="none" fill="#fff" />
<circle cx="220.00" cy="120.00" r="4.00" fill="none" stroke="#000" stroke-width="2" />
<circle cx="220.00" cy="90.00" r="4.00" stroke="none" fill="#fff" />
<circle cx="220.00" cy="90.00" r="4.00" fill="none" stroke="#000" stroke-width="2" />
<path d="M 220.00 90.00 L 260.00 90.00" fill="none" stroke="#000" stroke-width="2" />
<circle cx="220.00" cy="90.00" r="4.00" stroke="none" fill="#fff" />
<circle cx="220.00" cy="90.00" r="4.00" fill="none" stroke="#000" stroke-width="2" />
<circle cx="260.00" cy="90.00" r="4.00" stroke="none" fill="#fff" />
<circle cx="260.00" cy="90.00" r="4.00" fill="none" stroke="#000" stroke-width="2" />
<path d="M 220.00 120.00 L 200.00 120.00" fill="none" stroke="#000" stroke-width="2" />
<circle cx="220.00" cy="120.00" r="4.00" stroke="none" fill="#fff" />
<circle cx="220.00" cy="120.00" r="4.00" fill="none" stroke="#000" stroke-width="2" />
<circle cx="200.00" cy="120.00" r="4.00" stroke="none" fill="#fff" />
<circle cx="200.00" cy="120.00" r="4.00" fill="none" stroke="#000" stroke-width="2" />
<path d="M 220.00 120.00 L 250.00 120.00" fill="none" stroke="#000" stroke-width="2" />
<circle cx="220.00" cy="120.00" r="4.00" stroke="none" fill="#fff" />
<circle cx="220.00" cy="120.00" r="4.00" fill="none" stroke="#000" stroke-width="2" />
<circle cx="250.00" cy="120.00" r="4.00" stroke="none" fill="#fff" />
<circle cx="250.00" cy="120.00" r="4.00" fill="none" stroke="#000" stroke-width="2" />
<path d="M 120.00 200.00 L 145.00 200.00" fill="none" stroke="#000" stroke-width="2" />
<path d="M 175.00 200.00 L 200.00 200.00" fill="none" stroke="#000" stroke-width="2" />
<path d="M 145.00 200.00 L 170.00 180.00" fill="none" stroke="#000" stroke-width="2" />
<circle cx="145.00" cy="200.00" r="4.00" fill="none" stroke="#000" stroke-width="2" />
<circle cx="145.00" cy="200.00" r="4.00" stroke="none" fill="#000" />
<circle cx="175.00" cy="200.00" r="4.00" fill="none" stroke="#000" stroke-width="2" />
<circle cx="175.00" cy="200.00" r="4.00" stroke="none" fill="#000" />
<circle cx="120.00" cy="200.00" r="4.00" stroke="none" fill="#fff" />
<circle cx="120.00" cy="200.00" r="4.00" fill="none" stroke="#000" stroke-width="2" />
<circle cx="200.00" cy="200.00" r="4.00" stroke="none" fill="#fff" />
<circle cx="200.00" cy="200.00" r="4.00" fill="none" stroke="#000" stroke-width="2" />
<path d="M 230.00 80.00 L 260.00 80.00" fill="none" stroke="#000" stroke-width="2" />
<circle cx="230.00" cy="80.00" r="4.00" stroke="none" fill="#fff" />
<circle cx="230.00" cy="80.00" r="4.00" fill="none" stroke="#000" stroke-width="2" />
<circle cx="260.00" cy="80.00" r="4.00" stroke="none" fill="#fff" />
<circle cx="260.00" cy="80.00" r="4.00" fill="none" stroke="#000" stroke-width="2" />
<path d="M 200.00 200.00 L 230.00 200.00" fill="none" stroke="#000" stroke-width="2" />
<circle cx="200.00" cy="200.00" r="4.00" stroke="none" fill="#fff" />
<circle cx="200.00" cy="200.00" r="4.00" fill="none" stroke="#000" stroke-width="2" />
<circle cx="230.00" cy="200.00" r="4.00" stroke="none" fill="#fff" />
<circle cx="230.00" cy="200.00" r="4.00" fill="none" stroke="#000" stroke-width="2" />
<path d="M 230.00 80.00 L 230.00 200.00" fill="none" stroke="#000" stroke-width="2" />
<circle cx="230.00" cy="80.00" r="4.00" stroke="none" fill="#fff" />
<circle cx="230.00" cy="80.00" r="4.00" fill="none" stroke="#000" stroke-width="2" />
<circle cx="230.00" cy="200.00" r="4.00" stroke="none" fill="#fff" />
<circle cx="230.00" cy="200.00" r="4.00" fill="none" stroke="#000" stroke-width="2" />
<path d="M 120.00 200.00 L 100.00 200.00" fill="none" stroke="#000" stroke-width="2" />
<circle cx="120.00" cy="200.00" r="4.00" stroke="none" fill="#fff" />
<circle cx="120.00" cy="200.00" r="4.00" fill="none" stroke="#000" stroke-width="2" />
<circle cx="100.00" cy="200.00" r="4.00" stroke="none" fill="#fff" />
<circle cx="100.00" cy="200.00" r="4.00" fill="none" stroke="#000" stroke-width="2" />
<path d="M 100.00 120.00 L 100.00 200.00" fill="none" stroke="#000" stroke-width="2" />
<circle cx="100.00" cy="120.00" r="4.00" stroke="none" fill="#fff" />
<circle cx="100.00" cy="120.00" r="4.00" fill="none" stroke="#000" stroke-width="2" />
<circle cx="100.00" cy="200.00" r="4.00" stroke="none" fill="#fff" />
<circle cx="100.00" cy="200.00" r="4.00" fill="none" stroke="#000" stroke-width="2" />
<path d="M 100.00 200.00 L 100.00 360.00" fill="none" stroke="#000" stroke-width="2" />
<circle cx="100.00" cy="200.00" r="4.00" stroke="none" fill="#fff" />
<circle cx="100.00" cy="200.00" r="4.00" fill="none" stroke="#000" stroke-width="2" />
<circle cx="100.00" cy="360.00" r="4.00" stroke="none" fill="#fff" />
<circle cx="100.00" cy="360.00" r="4.00" fill="none" stroke="#000" stroke-width="2" />
<path d="M 230.00 200.00 L 250.00 200.00" fill="none" stroke="#000" stroke-width="2" />
<circle cx="230.00" cy="200.00" r="4.00" stroke="none" fill="#fff" />
<circle cx="230.00" cy="200.00" r="4.00" fill="none" stroke="#000" stroke-width="2" />
<circle cx="250.00" cy="200.00" r="4.00" stroke="none" fill="#fff" />
<circle cx="250.00" cy="200.00" r="4.00" fill="none" stroke="#000" stroke-width="2" />
<path d="M 270.00 160.00 L 290.00 160.00" fill="none" stroke="#000" stroke-width="2" />
<path d="M 330.00 160.00 L 350.00 160.00" fill="none" stroke="#000" stroke-width="2" />
<path d="M 290.00 140.00 L 290.00 180.00 L 320.00 160.00 L 290.00 140.00" fill="none" stroke="#000" stroke-width="2" />
<circle cx="325.00" cy="160.00" r="5.00" fill="none" stroke="#000" stroke-width="2" />
<circle cx="270.00" cy="160.00" r="4.00" stroke="none" fill="#fff" />
<circle cx="270.00" cy="160.00" r="4.00" fill="none" stroke="#000" stroke-width="2" />
<circle cx="350.00" cy="160.00" r="4.00" stroke="none" fill="#fff" />
<circle cx="350.00" cy="160.00" r="4.00" fill="none" stroke="#000" stroke-width="2" />
<path d="M 270.00 240.00 L 290.00 240.00" fill="none" stroke="#000" stroke-width="2" />
<path d="M 330.00 240.00 L 350.00 240.00" fill="none" stroke="#000" stroke-width="2" />
<path d="M 290.00 220.00 L 290.00 260.00 L 320.00 240.00 L 290.00 220.00" fill="none" stroke="#000" stroke-width="2" />
<circle cx="325.00" cy="240.00" r="5.00" fill="none" stroke="#000" stroke-width="2" />
<circle cx="270.00" cy="240.00" r="4.00" stroke="none" fill="#fff" />
<circle cx="270.00" cy="240.00" r="4.00" fill="none" stroke="#000" stroke-width="2" />
<circle cx="350.00" cy="240.00" r="4.00" stroke="none" fill="#fff" />
<circle cx="350.00" cy="240.00" r="4.00" fill="none" stroke="#000" stroke-width="2" />
<path d="M 250.00 120.00 L 250.00 160.00" fill="none" stroke="#000" stroke-width="2" />
<circle cx="250.00" cy="120.00" r="4.00" stroke="none" fill="#fff" />
<circle cx="250.00" cy="120.00" r="4.00" fill="none" stroke="#000" stroke-width="2" />
<circle cx="250.00" cy="160.00" r="4.00" stroke="none" fill="#fff" />
<circle cx="250.00" cy="160.00" r="4.00" fill="none" stroke="#000" stroke-width="2" />
<path d="M 250.00 160.00 L 270.00 160.00" fill="none" stroke="#000" stroke-width="2" />
<circle cx="250.00" cy="160.00" r="4.00" stroke="none" fill="#fff" />
<circle cx="250.00" cy="160.00" r="4.00" fill="none" stroke="#000" stroke-width="2" />
<circle cx="270.00" cy="160.00" r="4.00" stroke="none" fill="#fff" />
<circle cx="270.00" cy="160.00" r="4.00" fill="none" stroke="#000" stroke-width="2" />
<path d="M 250.00 200.00 L 250.00 240.00" fill="none" stroke="#000" stroke-width="2" />
<circle cx="250.00" cy="200.00" r="4.00" stroke="none" fill="#fff" />
<circle cx="250.00" cy="200.00" r="4.00" fill="none" stroke="#000" stroke-width="2" />
<circle cx="250.00" cy="240.00" r="4.00" stroke="none" fill="#fff" />
<circle cx="250.00" cy="240.00" r="4.00" fill="none" stroke="#000" stroke-width="2" />
<path d="M 250.00 240.00 L 270.00 240.00" fill="none" stroke="#000" stroke-width="2" />
<circle cx="250.00" cy="240.00" r="4.00" stroke="none" fill="#fff" />
<circle cx="250.00" cy="240.00" r="4.00" fill="none" stroke="#000" stroke-width="2" />
<circle cx="270.00" cy="240.00" r="4.00" stroke="none" fill="#fff" />
<circle cx="270.00" cy="240.00" r="4.00" fill="none" stroke="#000" stroke-width="2" />
<path d="M 530.00 110.00 L 555.00 110.00" fill="none" stroke="#000" stroke-width="2" />
<path d="M 530.00 130.00 L 555.00 130.00" fill="none" stroke="#000" stroke-width="2" />
<path d="M 590.00 120.00 L 610.00 120.00" fill="none" stroke="#000" stroke-width="2" />
<path d="M 550.00 100.00 C 559.00 109.00 , 559.00 131.00 , 550.00 140.00" fill="none" stroke="#000" stroke-width="2" />
<path d="M 550.00 100.00 C 570.00 100.00 , 585.00 110.00 , 590.00 120.00" fill="none" stroke="#000" stroke-width="2" />
<path d="M 550.00 140.00 C 570.00 140.00 , 585.00 130.00 , 590.00 120.00" fill="none" stroke="#000" stroke-width="2" />
<circle cx="530.00" cy="110.00" r="4.00" stroke="none" fill="#fff" />
<circle cx="530.00" cy="110.00" r="4.00" fill="none" stroke="#000" stroke-width="2" />
<circle cx="530.00" cy="130.00" r="4.00" stroke="none" fill="#fff" />
<circle cx="530.00" cy="130.00" r="4.00" fill="none" stroke="#000" stroke-width="2" />
<circle cx="610.00" cy="120.00" r="4.00" stroke="none" fill="#fff" />
<circle cx="610.00" cy="120.00" r="4.00" fill="none" stroke="#000" stroke-width="2" />
<path d="M 610.00 320.00 L 800.00 320.00" fill="none" stroke="#000" stroke-width="2" />
<circle cx="610.00" cy="320.00" r="4.00" stroke="none" fill="#fff" />
<circle cx="610.00" cy="320.00" r="4.00" fill="none" stroke="#000" stroke-width="2" />
<circle cx="800.00" cy="320.00" r="4.00" stroke="none" fill="#fff" />
<circle cx="800.00" cy="320.00" r="4.00" fill="none" stroke="#000" stroke-width="2" />
<path d="M 800.00 120.00 L 760.00 120.00" fill="none" stroke="#000" stroke-width="2" />
<circle cx="800.00" cy="120.00" r="4.00" stroke="none" fill="#fff" />
<circle cx="800.00" cy="120.00" r="4.00" fill="none" stroke="#000" stroke-width="2" />
<circle cx="760.00" cy="120.00" r="4.00" stroke="none" fill="#fff" />
<circle cx="760.00" cy="120.00" r="4.00" fill="none" stroke="#000" stroke-width="2" />
<path d="M 760.00 120.00 L 760.00 360.00" fill="none" stroke="#000" stroke-width="2" />
<circle cx="760.00" cy="120.00" r="4.00" stroke="none" fill="#fff" />
<circle cx="760.00" cy="120.00" r="4.00" fill="none" stroke="#000" stroke-width="2" />
<circle cx="760.00" cy="360.00" r="4.00" stroke="none" fill="#fff" />
<circle cx="760.00" cy="360.00" r="4.00" fill="none" stroke="#000" stroke-width="2" />
<path d="M 760.00 360.00 L 800.00 360.00" fill="none" stroke="#000" stroke-width="2" />
<circle cx="760.00" cy="360.00" r="4.00" stroke="none" fill="#fff" />
<circle cx="760.00" cy="360.00" r="4.00" fill="none" stroke="#000" stroke-width="2" />
<circle cx="800.00" cy="360.00" r="4.00" stroke="none" fill="#fff" />
<circle cx="800.00" cy="360.00" r="4.00" fill="none" stroke="#000" stroke-width="2" />
<path d="M 800.00 160.00 L 720.00 160.00" fill="none" stroke="#000" stroke-width="2" />
<circle cx="800.00" cy="160.00" r="4.00" stroke="none" fill="#fff" />
<circle cx="800.00" cy="160.00" r="4.00" fill="none" stroke="#000" stroke-width="2" />
<circle cx="720.00" cy="160.00" r="4.00" stroke="none" fill="#fff" />
<circle cx="720.00" cy="160.00" r="4.00" fill="none" stroke="#000" stroke-width="2" />
<path d="M 720.00 160.00 L 720.00 360.00" fill="none" stroke="#000" stroke-width="2" />
<circle cx="720.00" cy="160.00" r="4.00" stroke="none" fill="#fff" />
<circle cx="720.00" cy="160.00" r="4.00" fill="none" stroke="#000" stroke-width="2" />
<circle cx="720.00" cy="360.00" r="4.00" stroke="none" fill="#fff" />
<circle cx="720.00" cy="360.00" r="4.00" fill="none" stroke="#000" stroke-width="2" />
<path d="M 530.00 310.00 L 555.00 310.00" fill="none" stroke="#000" stroke-width="2" />
<path d="M 530.00 330.00 L 555.00 330.00" fill="none" stroke="#000" stroke-width="2" />
<path d="M 590.00 320.00 L 610.00 320.00" fill="none" stroke="#000" stroke-width="2" />
<path d="M 550.00 300.00 C 559.00 309.00 , 559.00 331.00 , 550.00 340.00" fill="none" stroke="#000" stroke-width="2" />
<path d="M 550.00 300.00 C 570.00 300.00 , 585.00 310.00 , 590.00 320.00" fill="none" stroke="#000" stroke-width="2" />
<path d="M 550.00 340.00 C 570.00 340.00 , 585.00 330.00 , 590.00 320.00" fill="none" stroke="#000" stroke-width="2" />
<circle cx="530.00" cy="310.00" r="4.00" stroke="none" fill="#fff" />
<circle cx="530.00" cy="310.00" r="4.00" fill="none" stroke="#000" stroke-width="2" />
<circle cx="530.00" cy="330.00" r="4.00" stroke="none" fill="#fff" />
<circle cx="530.00" cy="330.00" r="4.00" fill="none" stroke="#000" stroke-width="2" />
<circle cx="610.00" cy="320.00" r="4.00" stroke="none" fill="#fff" />
<circle cx="610.00" cy="320.00" r="4.00" fill="none" stroke="#000" stroke-width="2" />
<path d="M 350.00 160.00 L 390.00 160.00" fill="none" stroke="#000" stroke-width="2" />
<circle cx="350.00" cy="160.00" r="4.00" stroke="none" fill="#fff" />
<circle cx="350.00" cy="160.00" r="4.00" fill="none" stroke="#000" stroke-width="2" />
<circle cx="390.00" cy="160.00" r="4.00" stroke="none" fill="#fff" />
<circle cx="390.00" cy="160.00" r="4.00" fill="none" stroke="#000" stroke-width="2" />
<path d="M 250.00 200.00 L 410.00 200.00" fill="none" stroke="#000" stroke-width="2" />
<circle cx="250.00" cy="200.00" r="4.00" stroke="none" fill="#fff" />
<circle cx="250.00" cy="200.00" r="4.00" fill="none" stroke="#000" stroke-width="2" />
<circle cx="410.00" cy="200.00" r="4.00" stroke="none" fill="#fff" />
<circle cx="410.00" cy="200.00" r="4.00" fill="none" stroke="#000" stroke-width="2" />
<path d="M 250.00 120.00 L 370.00 120.00" fill="none" stroke="#000" stroke-width="2" />
<circle cx="250.00" cy="120.00" r="4.00" stroke="none" fill="#fff" />
<circle cx="250.00" cy="120.00" r="4.00" fill="none" stroke="#000" stroke-width="2" />
<circle cx="370.00" cy="120.00" r="4.00" stroke="none" fill="#fff" />
<circle cx="370.00" cy="120.00" r="4.00" fill="none" stroke="#000" stroke-width="2" />
<path d="M 410.00 130.00 L 530.00 130.00" fill="none" stroke="#000" stroke-width="2" />
<circle cx="410.00" cy="130.00" r="4.00" stroke="none" fill="#fff" />
<circle cx="410.00" cy="130.00" r="4.00" fill="none" stroke="#000" stroke-width="2" />
<circle cx="530.00" cy="130.00" r="4.00" stroke="none" fill="#fff" />
<circle cx="530.00" cy="130.00" r="4.00" fill="none" stroke="#000" stroke-width="2" />
<path d="M 390.00 160.00 L 390.00 110.00" fill="none" stroke="#000" stroke-width="2" />
<circle cx="390.00" cy="160.00" r="4.00" stroke="none" fill="#fff" />
<circle cx="390.00" cy="160.00" r="4.00" fill="none" stroke="#000" stroke-width="2" />
<circle cx="390.00" cy="110.00" r="4.00" stroke="none" fill="#fff" />
<circle cx="390.00" cy="110.00" r="4.00" fill="none" stroke="#000" stroke-width="2" />
<path d="M 390.00 110.00 L 530.00 110.00" fill="none" stroke="#000" stroke-width="2" />
<circle cx="390.00" cy="110.00" r="4.00" stroke="none" fill="#fff" />
<circle cx="390.00" cy="110.00" r="4.00" fill="none" stroke="#000" stroke-width="2" />
<circle cx="530.00" cy="110.00" r="4.00" stroke="none" fill="#fff" />
<circle cx="530.00" cy="110.00" r="4.00" fill="none" stroke="#000" stroke-width="2" />
<path d="M 490.00 190.00 L 370.00 190.00" fill="none" stroke="#000" stroke-width="2" />
<circle cx="490.00" cy="190.00" r="4.00" stroke="none" fill="#fff" />
<circle cx="490.00" cy="190.00" r="4.00" fill="none" stroke="#000" stroke-width="2" />
<circle cx="370.00" cy="190.00" r="4.00" stroke="none" fill="#fff" />
<circle cx="370.00" cy="190.00" r="4.00" fill="none" stroke="#000" stroke-width="2" />
<path d="M 370.00 120.00 L 370.00 190.00" fill="none" stroke="#000" stroke-width="2" />
<circle cx="370.00" cy="120.00" r="4.00" stroke="none" fill="#fff" />
<circle cx="370.00" cy="120.00" r="4.00" fill="none" stroke="#000" stroke-width="2" />
<circle cx="370.00" cy="190.00" r="4.00" stroke="none" fill="#fff" />
<circle cx="370.00" cy="190.00" r="4.00" fill="none" stroke="#000" stroke-width="2" />
<path d="M 370.00 190.00 L 370.00 310.00" fill="none" stroke="#000" stroke-width="2" />
<circle cx="370.00" cy="190.00" r="4.00" stroke="none" fill="#fff" />
<circle cx="370.00" cy="190.00" r="4.00" fill="none" stroke="#000" stroke-width="2" />
<circle cx="370.00" cy="310.00" r="4.00" stroke="none" fill="#fff" />
<circle cx="370.00" cy="310.00" r="4.00" fill="none" stroke="#000" stroke-width="2" />
<path d="M 370.00 310.00 L 530.00 310.00" fill="none" stroke="#000" stroke-width="2" />
<circle cx="370.00" cy="310.00" r="4.00" stroke="none" fill="#fff" />
<circle cx="370.00" cy="310.00" r="4.00" fill="none" stroke="#000" stroke-width="2" />
<circle cx="530.00" cy="310.00" r="4.00" stroke="none" fill="#fff" />
<circle cx="530.00" cy="310.00" r="4.00" fill="none" stroke="#000" stroke-width="2" />
<path d="M 350.00 240.00 L 350.00 330.00" fill="none" stroke="#000" stroke-width="2" />
<circle cx="350.00" cy="240.00" r="4.00" stroke="none" fill="#fff" />
<circle cx="350.00" cy="240.00" r="4.00" fill="none" stroke="#000" stroke-width="2" />
<circle cx="350.00" cy="330.00" r="4.00" stroke="none" fill="#fff" />
<circle cx="350.00" cy="330.00" r="4.00" fill="none" stroke="#000" stroke-width="2" />
<path d="M 350.00 330.00 L 530.00 330.00" fill="none" stroke="#000" stroke-width="2" />
<circle cx="350.00" cy="330.00" r="4.00" stroke="none" fill="#fff" />
<circle cx="350.00" cy="330.00" r="4.00" fill="none" stroke="#000" stroke-width="2" />
<circle cx="530.00" cy="330.00" r="4.00" stroke="none" fill="#fff" />
<circle cx="530.00" cy="330.00" r="4.00" fill="none" stroke="#000" stroke-width="2" />
<path d="M 390.00 160.00 L 390.00 280.00" fill="none" stroke="#000" stroke-width="2" />
<circle cx="390.00" cy="160.00" r="4.00" stroke="none" fill="#fff" />
<circle cx="390.00" cy="160.00" r="4.00" fill="none" stroke="#000" stroke-width="2" />
<circle cx="390.00" cy="280.00" r="4.00" stroke="none" fill="#fff" />
<circle cx="390.00" cy="280.00" r="4.00" fill="none" stroke="#000" stroke-width="2" />
<path d="M 390.00 280.00 L 800.00 280.00" fill="none" stroke="#000" stroke-width="2" />
<circle cx="390.00" cy="280.00" r="4.00" stroke="none" fill="#fff" />
<circle cx="390.00" cy="280.00" r="4.00" fill="none" stroke="#000" stroke-width="2" />
<circle cx="800.00" cy="280.00" r="4.00" stroke="none" fill="#fff" />
<circle cx="800.00" cy="280.00" r="4.00" fill="none" stroke="#000" stroke-width="2" />
<path d="M 610.00 120.00 L 760.00 120.00" fill="none" stroke="#000" stroke-width="2" />
<circle cx="610.00" cy="120.00" r="4.00" stroke="none" fill="#fff" />
<circle cx="610.00" cy="120.00" r="4.00" fill="none" stroke="#000" stroke-width="2" />
<circle cx="760.00" cy="120.00" r="4.00" stroke="none" fill="#fff" />
<circle cx="760.00" cy="120.00" r="4.00" fill="none" stroke="#000" stroke-width="2" />
<path d="M 650.00 200.00 L 800.00 200.00" fill="none" stroke="#000" stroke-width="2" />
<circle cx="650.00" cy="200.00" r="4.00" stroke="none" fill="#fff" />
<circle cx="650.00" cy="200.00" r="4.00" fill="none" stroke="#000" stroke-width="2" />
<circle cx="800.00" cy="200.00" r="4.00" stroke="none" fill="#fff" />
<circle cx="800.00" cy="200.00" r="4.00" fill="none" stroke="#000" stroke-width="2" />
<path d="M 800.00 240.00 L 410.00 240.00" fill="none" stroke="#000" stroke-width="2" />
<circle cx="800.00" cy="240.00" r="4.00" stroke="none" fill="#fff" />
<circle cx="800.00" cy="240.00" r="4.00" fill="none" stroke="#000" stroke-width="2" />
<circle cx="410.00" cy="240.00" r="4.00" stroke="none" fill="#fff" />
<circle cx="410.00" cy="240.00" r="4.00" fill="none" stroke="#000" stroke-width="2" />
<path d="M 100.00 360.00 L 720.00 360.00" fill="none" stroke="#000" stroke-width="2" />
<circle cx="100.00" cy="360.00" r="4.00" stroke="none" fill="#fff" />
<circle cx="100.00" cy="360.00" r="4.00" fill="none" stroke="#000" stroke-width="2" />
<circle cx="720.00" cy="360.00" r="4.00" stroke="none" fill="#fff" />
<circle cx="720.00" cy="360.00" r="4.00" fill="none" stroke="#000" stroke-width="2" />
<path d="M 410.00 130.00 L 410.00 200.00" fill="none" stroke="#000" stroke-width="2" />
<circle cx="410.00" cy="130.00" r="4.00" stroke="none" fill="#fff" />
<circle cx="410.00" cy="130.00" r="4.00" fill="none" stroke="#000" stroke-width="2" />
<circle cx="410.00" cy="200.00" r="4.00" stroke="none" fill="#fff" />
<circle cx="410.00" cy="200.00" r="4.00" fill="none" stroke="#000" stroke-width="2" />
<path d="M 410.00 200.00 L 410.00 210.00" fill="none" stroke="#000" stroke-width="2" />
<circle cx="410.00" cy="200.00" r="4.00" stroke="none" fill="#fff" />
<circle cx="410.00" cy="200.00" r="4.00" fill="none" stroke="#000" stroke-width="2" />
<circle cx="410.00" cy="210.00" r="4.00" stroke="none" fill="#fff" />
<circle cx="410.00" cy="210.00" r="4.00" fill="none" stroke="#000" stroke-width="2" />
<path d="M 410.00 210.00 L 490.00 210.00" fill="none" stroke="#000" stroke-width="2" />
<circle cx="410.00" cy="210.00" r="4.00" stroke="none" fill="#fff" />
<circle cx="410.00" cy="210.00" r="4.00" fill="none" stroke="#000" stroke-width="2" />
<circle cx="490.00" cy="210.00" r="4.00" stroke="none" fill="#fff" />
<circle cx="490.00" cy="210.00" r="4.00" fill="none" stroke="#000" stroke-width="2" />
<path d="M 410.00 210.00 L 410.00 240.00" fill="none" stroke="#000" stroke-width="2" />
<circle cx="410.00" cy="210.00" r="4.00" stroke="none" fill="#fff" />
<circle cx="410.00" cy="210.00" r="4.00" fill="none" stroke="#000" stroke-width="2" />
<circle cx="410.00" cy="240.00" r="4.00" stroke="none" fill="#fff" />
<circle cx="410.00" cy="240.00" r="4.00" fill="none" stroke="#000" stroke-width="2" />
<path d="M 490.00 190.00 L 515.00 190.00" fill="none" stroke="#000" stroke-width="2" />
<path d="M 490.00 210.00 L 515.00 210.00" fill="none" stroke="#000" stroke-width="2" />
<path d="M 550.00 200.00 L 570.00 200.00" fill="none" stroke="#000" stroke-width="2" />
<path d="M 510.00 180.00 C 519.00 189.00 , 519.00 211.00 , 510.00 220.00" fill="none" stroke="#000" stroke-width="2" />
<path d="M 510.00 180.00 C 530.00 180.00 , 545.00 190.00 , 550.00 200.00" fill="none" stroke="#000" stroke-width="2" />
<path d="M 510.00 220.00 C 530.00 220.00 , 545.00 210.00 , 550.00 200.00" fill="none" stroke="#000" stroke-width="2" />
<circle cx="490.00" cy="190.00" r="4.00" stroke="none" fill="#fff" />
<circle cx="490.00" cy="190.00" r="4.00" fill="none" stroke="#000" stroke-width="2" />
<circle cx="490.00" cy="210.00" r="4.00" stroke="none" fill="#fff" />
<circle cx="490.00" cy="210.00" r="4.00" fill="none" stroke="#000" stroke-width="2" />
<circle cx="570.00" cy="200.00" r="4.00" stroke="none" fill="#fff" />
<circle cx="570.00" cy="200.00" r="4.00" fill="none" stroke="#000" stroke-width="2" />
<path d="M 570.00 200.00 L 590.00 200.00" fill="none" stroke="#000" stroke-width="2" />
<path d="M 630.00 200.00 L 650.00 200.00" fill="none" stroke="#000" stroke-width="2" />
<path d="M 590.00 180.00 L 590.00 220.00 L 620.00 200.00 L 590.00 180.00" fill="none" stroke="#000" stroke-width="2" />
<circle cx="625.00" cy="200.00" r="5.00" fill="none" stroke="#000" stroke-width="2" />
<circle cx="570.00" cy="200.00" r="4.00" stroke="none" fill="#fff" />
<circle cx="570.00" cy="200.00" r="4.00" fill="none" stroke="#000" stroke-width="2" />
<circle cx="650.00" cy="200.00" r="4.00" stroke="none" fill="#fff" />
<circle cx="650.00" cy="200.00" r="4.00" fill="none" stroke="#000" stroke-width="2" />
</g>
</svg>
