<svg width="980" height="490" xmlns="http://www.w3.org/2000/svg">
<g>
<text x="60.00" y="127.00" font-family="Arial,Helvetica,sans-serif" font-size="14" font-weight="bold" text-anchor="middle" stroke="none" fill="#000" >1</text>
<circle cx="100.00" cy="120.00" r="4.00" stroke="none" fill="#fff" />
<circle cx="100.00" cy="120.00" r="4.00" fill="none" stroke="#000" stroke-width="2" />
<path d="M 120.00 120.00 L 145.00 120.00" fill="none" stroke="#000" stroke-width="2" />
<path d="M 175.00 120.00 L 200.00 120.00" fill="none" stroke="#000" stroke-width="2" />
<path d="M 145.00 120.00 L 170.00 100.00" fill="none" stroke="#000" stroke-width="2" />
<circle cx="145.00" cy="120.00" r="4.00" fill="none" stroke="#000" stroke-width="2" />
<circle cx="145.00" cy="120.00" r="4.00" stroke="none" fill="#000" />
<circle cx="175.00" cy="120.00" r="4.00" fill="none" stroke="#000" stroke-width="2" />
<circle cx="175.00" cy="120.00" r="4.00" stroke="none" fill="#000" />
<circle cx="120.00" cy="120.00" r="4.00" stroke="none" fill="#fff" />
<circle cx="120.00" cy="120.00" r="4.00" fill="none" stroke="#000" stroke-width="2" />
<circle cx="200.00" cy="120.00" r="4.00" stroke="none" fill="#fff" />
<circle cx="200.00" cy="120.00" r="4.00" fill="none" stroke="#000" stroke-width="2" />
<path d="M 100.00 120.00 L 120.00 120.00" fill="none" stroke="#000" stroke-width="2" />
<circle cx="100.00" cy="120.00" r="4.00" stroke="none" fill="#fff" />
<circle cx="100.00" cy="120.00" r="4.00" fill="none" stroke="#000" stroke-width="2" />
<circle cx="120.00" cy="120.00" r="4.00" stroke="none" fill="#fff" />
<circle cx="120.00" cy="120.00" r="4.00" fill="none" stroke="#000" stroke-width="2" />
<path d="M 750.00 120.00 L 770.00 120.00" fill="none" stroke="#000" stroke-width="2" />
<circle cx="785.00" cy="120.00" r="15.00" fill="none" stroke="#000" stroke-width="2" />
<circle cx="750.00" cy="120.00" r="4.00" stroke="none" fill="#fff" />
<circle cx="750.00" cy="120.00" r="4.00" fill="none" stroke="#000" stroke-width="2" />
<path d="M 650.00 180.00 L 670.00 180.00" fill="none" stroke="#000" stroke-width="2" />
<circle cx="685.00" cy="180.00" r="15.00" fill="none" stroke="#000" stroke-width="2" />
<circle cx="650.00" cy="180.00" r="4.00" stroke="none" fill="#fff" />
<circle cx="650.00" cy="180.00" r="4.00" fill="none" stroke="#000" stroke-width="2" />
<path d="M 850.00 180.00 L 870.00 180.00" fill="none" stroke="#000" stroke-width="2" />
<circle cx="885.00" cy="180.00" r="15.00" fill="none" stroke="#000" stroke-width="2" />
<circle cx="850.00" cy="180.00" r="4.00" stroke="none" fill="#fff" />
<circle cx="850.00" cy="180.00" r="4.00" fill="none" stroke="#000" stroke-width="2" />
<path d="M 750.00 240.00 L 770.00 240.00" fill="none" stroke="#000" stroke-width="2" />
<circle cx="785.00" cy="240.00" r="15.00" fill="none" stroke="#000" stroke-width="2" />
<circle cx="750.00" cy="240.00" r="4.00" stroke="none" fill="#fff" />
<circle cx="750.00" cy="240.00" r="4.00" fill="none" stroke="#000" stroke-width="2" />
<path d="M 750.00 360.00 L 770.00 360.00" fill="none" stroke="#000" stroke-width="2" />
<circle cx="785.00" cy="360.00" r="15.00" fill="none" stroke="#000" stroke-width="2" />
<circle cx="750.00" cy="360.00" r="4.00" stroke="none" fill="#fff" />
<circle cx="750.00" cy="360.00" r="4.00" fill="none" stroke="#000" stroke-width="2" />
<path d="M 650.00 300.00 L 670.00 300.00" fill="none" stroke="#000" stroke-width="2" />
<circle cx="685.00" cy="300.00" r="15.00" fill="none" stroke="#000" stroke-width="2" />
<circle cx="650.00" cy="300.00" r="4.00" stroke="none" fill="#fff" />
<circle cx="650.00" cy="300.00" r="4.00" fill="none" stroke="#000" stroke-width="2" />
<path d="M 850.00 300.00 L 870.00 300.00" fill="none" stroke="#000" stroke-width="2" />
<circle cx="885.00" cy="300.00" r="15.00" fill="none" stroke="#000" stroke-width="2" />
<circle cx="850.00" cy="300.00" r="4.00" stroke="none" fill="#fff" />
<circle cx="850.00" cy="300.00" r="4.00" fill="none" stroke="#000" stroke-width="2" />
<path d="M 600.00 120.00 L 750.00 120.00" fill="none" stroke="#000" stroke-width="2" />
<circle cx="600.00" cy="120.00" r="4.00" stroke="none" fill="#fff" />
<circle cx="600.00" cy="120.00" r="4.00" fill="none" stroke="#000" stroke-width="2" />
<circle cx="750.00" cy="120.00" r="4.00" stroke="none" fill="#fff" />
<circle cx="750.00" cy="120.00" r="4.00" fill="none" stroke="#000" stroke-width="2" />
<path d="M 600.00 200.00 L 650.00 200.00" fill="none" stroke="#000" stroke-width="2" />
<circle cx="600.00" cy="200.00" r="4.00" stroke="none" fill="#fff" />
<circle cx="600.00" cy="200.00" r="4.00" fill="none" stroke="#000" stroke-width="2" />
<circle cx="650.00" cy="200.00" r="4.00" stroke="none" fill="#fff" />
<circle cx="650.00" cy="200.00" r="4.00" fill="none" stroke="#000" stroke-width="2" />
<path d="M 650.00 180.00 L 650.00 200.00" fill="none" stroke="#000" stroke-width="2" />
<circle cx="650.00" cy="180.00" r="4.00" stroke="none" fill="#fff" />
<circle cx="650.00" cy="180.00" r="4.00" fill="none" stroke="#000" stroke-width="2" />
<circle cx="650.00" cy="200.00" r="4.00" stroke="none" fill="#fff" />
<circle cx="650.00" cy="200.00" r="4.00" fill="none" stroke="#000" stroke-width="2" />
<path d="M 600.00 240.00 L 750.00 240.00" fill="none" stroke="#000" stroke-width="2" />
<circle cx="600.00" cy="240.00" r="4.00" stroke="none" fill="#fff" />
<circle cx="600.00" cy="240.00" r="4.00" fill="none" stroke="#000" stroke-width="2" />
<circle cx="750.00" cy="240.00" r="4.00" stroke="none" fill="#fff" />
<circle cx="750.00" cy="240.00" r="4.00" fill="none" stroke="#000" stroke-width="2" />
<path d="M 600.00 280.00 L 650.00 280.00" fill="none" stroke="#000" stroke-width="2" />
<circle cx="600.00" cy="280.00" r="4.00" stroke="none" fill="#fff" />
<circle cx="600.00" cy="280.00" r="4.00" fill="none" stroke="#000" stroke-width="2" />
<circle cx="650.00" cy="280.00" r="4.00" stroke="none" fill="#fff" />
<circle cx="650.00" cy="280.00" r="4.00" fill="none" stroke="#000" stroke-width="2" />
<path d="M 650.00 280.00 L 650.00 300.00" fill="none" stroke="#000" stroke-width="2" />
<circle cx="650.00" cy="280.00" r="4.00" stroke="none" fill="#fff" />
<circle cx="650.00" cy="280.00" r="4.00" fill="none" stroke="#000" stroke-width="2" />
<circle cx="650.00" cy="300.00" r="4.00" stroke="none" fill="#fff" />
<circle cx="650.00" cy="300.00" r="4.00" fill="none" stroke="#000" stroke-width="2" />
<path d="M 600.00 320.00 L 850.00 320.00" fill="none" stroke="#000" stroke-width="2" />
<circle cx="600.00" cy="320.00" r="4.00" stroke="none" fill="#fff" />
<circle cx="600.00" cy="320.00" r="4.00" fill="none" stroke="#000" stroke-width="2" />
<circle cx="850.00" cy="320.00" r="4.00" stroke="none" fill="#fff" />
<circle cx="850.00" cy="320.00" r="4.00" fill="none" stroke="#000" stroke-width="2" />
<path d="M 850.00 300.00 L 850.00 320.00" fill="none" stroke="#000" stroke-width="2" />
<circle cx="850.00" cy="300.00" r="4.00" stroke="none" fill="#fff" />
<circle cx="850.00" cy="300.00" r="4.00" fill="none" stroke="#000" stroke-width="2" />
<circle cx="850.00" cy="320.00" r="4.00" stroke="none" fill="#fff" />
<circle cx="850.00" cy="320.00" r="4.00" fill="none" stroke="#000" stroke-width="2" />
<path d="M 600.00 360.00 L 750.00 360.00" fill="none" stroke="#000" stroke-width="2" />
<circle cx="600.00" cy="360.00" r="4.00" stroke="none" fill="#fff" />
<circle cx="600.00" cy="360.00" r="4.00" fill="none" stroke="#000" stroke-width="2" />
<circle cx="750.00" cy="360.00" r="4.00" stroke="none" fill="#fff" />
<circle cx="750.00" cy="360.00" r="4.00" fill="none" stroke="#000" stroke-width="2" />
<path d="M 850.00 180.00 L 850.00 160.00" fill="none" stroke="#000" stroke-width="2" />
<circle cx="850.00" cy="180.00" r="4.00" stroke="none" fill="#fff" />
<circle cx="850.00" cy="180.00" r="4.00" fill="none" stroke="#000" stroke-width="2" />
<circle cx="850.00" cy="160.00" r="4.00" stroke="none" fill="#fff" />
<circle cx="850.00" cy="160.00" r="4.00" fill="none" stroke="#000" stroke-width="2" />
<path d="M 600.00 160.00 L 850.00 160.00" fill="none" stroke="#000" stroke-width="2" />
<circle cx="600.00" cy="160.00" r="4.00" stroke="none" fill="#fff" />
<circle cx="600.00" cy="160.00" r="4.00" fill="none" stroke="#000" stroke-width="2" />
<circle cx="850.00" cy="160.00" r="4.00" stroke="none" fill="#fff" />
<circle cx="850.00" cy="160.00" r="4.00" fill="none" stroke="#000" stroke-width="2" />
<path d="M 80.00 440.00 L 100.00 440.00" fill="none" stroke="#000" stroke-width="2" />
<text x="60.00" y="447.00" font-family="Arial,Helvetica,sans-serif" font-size="14" font-weight="bold" text-anchor="middle" stroke="none" fill="#000" >0</text>
<circle cx="100.00" cy="440.00" r="4.00" stroke="none" fill="#fff" />
<circle cx="100.00" cy="440.00" r="4.00" fill="none" stroke="#000" stroke-width="2" />
<path d="M 100.00 440.00 L 260.00 440.00" fill="none" stroke="#000" stroke-width="2" />
<circle cx="100.00" cy="440.00" r="4.00" stroke="none" fill="#fff" />
<circle cx="100.00" cy="440.00" r="4.00" fill="none" stroke="#000" stroke-width="2" />
<circle cx="260.00" cy="440.00" r="4.00" stroke="none" fill="#fff" />
<circle cx="260.00" cy="440.00" r="4.00" fill="none" stroke="#000" stroke-width="2" />
<path d="M 260.00 60.00 L 280.00 60.00" fill="none" stroke="#000" stroke-width="2" />
<path d="M 260.00 70.00 L 280.00 70.00" fill="none" stroke="#000" stroke-width="2" />
<path d="M 260.00 80.00 L 280.00 80.00" fill="none" stroke="#000" stroke-width="2" />
<path d="M 260.00 90.00 L 280.00 90.00" fill="none" stroke="#000" stroke-width="2" />
<path d="M 280.00 55.00 L 280.00 95.00 L 305.00 95.00 L 305.00 55.00 L 280.00 55.00" stroke="none" fill="rgba(0,0,0,0.8)" />
<path d="M 280.00 55.00 L 280.00 95.00 L 305.00 95.00 L 305.00 55.00 L 280.00 55.00" fill="none" stroke="#000" stroke-width="2" />
<circle cx="260.00" cy="60.00" r="4.00" stroke="none" fill="#fff" />
<circle cx="260.00" cy="60.00" r="4.00" fill="none" stroke="#000" stroke-width="2" />
<circle cx="260.00" cy="70.00" r="4.00" stroke="none" fill="#fff" />
<circle cx="260.00" cy="70.00" r="4.00" fill="none" stroke="#000" stroke-width="2" />
<circle cx="260.00" cy="80.00" r="4.00" stroke="none" fill="#fff" />
<circle cx="260.00" cy="80.00" r="4.00" fill="none" stroke="#000" stroke-width="2" />
<circle cx="260.00" cy="90.00" r="4.00" stroke="none" fill="#fff" />
<circle cx="260.00" cy="90.00" r="4.00" fill="none" stroke="#000" stroke-width="2" />
<path d="M 220.00 120.00 L 220.00 90.00" fill="none" stroke="#000" stroke-width="2" />
<circle cx="220.00" cy="120.00" r="4.00" stroke="none" fill="#fff" />
<circle cx="220.00" cy="120.00" r="4.00" fill="none" stroke="#000" stroke-width="2" />
<circle cx="220.00" cy="90.00" r="4.00" stroke="none" fill="#fff" />
<circle cx="220.00" cy="90.00" r="4.00" fill="none" stroke="#000" stroke-width="2" />
<path d="M 220.00 90.00 L 260.00 90.00" fill="none" stroke="#000" stroke-width="2" />
<circle cx="220.00" cy="90.00" r="4.00" stroke="none" fill="#fff" />
<circle cx="220.00" cy="90.00" r="4.00" fill="none" stroke="#000" stroke-width="2" />
<circle cx="260.00" cy="90.00" r="4.00" stroke="none" fill="#fff" />
<circle cx="260.00" cy="90.00" r="4.00" fill="none" stroke="#000" stroke-width="2" />
<path d="M 220.00 120.00 L 200.00 120.00" fill="none" stroke="#000" stroke-width="2" />
<circle cx="220.00" cy="120.00" r="4.00" stroke="none" fill="#fff" />
<circle cx="220.00" cy="120.00" r="4.00" fill="none" stroke="#000" stroke-width="2" />
<circle cx="200.00" cy="120.00" r="4.00" stroke="none" fill="#fff" />
<circle cx="200.00" cy="120.00" r="4.00" fill="none" stroke="#000" stroke-width="2" />
<path d="M 220.00 120.00 L 250.00 120.00" fill="none" stroke="#000" stroke-width="2" />
<circle cx="220.00" cy="120.00" r="4.00" stroke="none" fill="#fff" />
<circle cx="220.00" cy="120.00" r="4.00" fill="none" stroke="#000" stroke-width="2" />
<circle cx="250.00" cy="120.00" r="4.00" stroke="none" fill="#fff" />
<circle cx="250.00" cy="120.00" r="4.00" fill="none" stroke="#000" stroke-width="2" />
<path d="M 120.00 200.00 L 145.00 200.00" fill="none" stroke="#000" stroke-width="2" />
<path d="M 175.00 200.00 L 200.00 200.00" fill="none" stroke="#000" stroke-width="2" />
<path d="M 145.00 200.00 L 170.00 180.00" fill="none" stroke="#000" stroke-width="2" />
<circle cx="145.00" cy="200.00" r="4.00" fill="none" stroke="#000" stroke-width="2" />
<circle cx="145.00" cy="200.00" r="4.00" stroke="none" fill="#000" />
<circle cx="175.00" cy="200.00" r="4.00" fill="none" stroke="#000" stroke-width="2" />
<circle cx="175.00" cy="200.00" r="4.00" stroke="none" fill="#000" />
<circle cx="120.00" cy="200.00" r="4.00" stroke="none" fill="#fff" />
<circle cx="120.00" cy="200.00" r="4.00" fill="none" stroke="#000" stroke-width="2" />
<circle cx="200.00" cy="200.00" r="4.00" stroke="none" fill="#fff" />
<circle cx="200.00" cy="200.00" r="4.00" fill="none" stroke="#000" stroke-width="2" />
<path d="M 230.00 80.00 L 260.00 80.00" fill="none" stroke="#000" stroke-width="2" />
<circle cx="230.00" cy="80.00" r="4.00" stroke="none" fill="#fff" />
<circle cx="230.00" cy="80.00" r="4.00" fill="none" stroke="#000" stroke-width="2" />
<circle cx="260.00" cy="80.00" r="4.00" stroke="none" fill="#fff" />
<circle cx="260.00" cy="80.00" r="4.00" fill="none" stroke="#000" stroke-width="2" />
<path d="M 200.00 200.00 L 230.00 200.00" fill="none" stroke="#000" stroke-width="2" />
<circle cx="200.00" cy="200.00" r="4.00" stroke="none" fill="#fff" />
<circle cx="200.00" cy="200.00" r="4.00" fill="none" stroke="#000" stroke-width="2" />
<circle cx="230.00" cy="200.00" r="4.00" stroke="none" fill="#fff" />
<circle cx="230.00" cy="200.00" r="4.00" fill="none" stroke="#000" stroke-width="2" />
<path d="M 230.00 80.00 L 230.00 200.00" fill="none" stroke="#000" stroke-width="2" />
<circle cx="230.00" cy="80.00" r="4.00" stroke="none" fill="#fff" />
<circle cx="230.00" cy="80.00" r="4.00" fill="none" stroke="#000" stroke-width="2" />
<circle cx="230.00" cy="200.00" r="4.00" stroke="none" fill="#fff" />
<circle cx="230.00" cy="200.00" r="4.00" fill="none" stroke="#000" stroke-width="2" />
<path d="M 120.00 200.00 L 100.00 200.00" fill="none" stroke="#000" stroke-width="2" />
<circle cx="120.00" cy="200.00" r="4.00" stroke="none" fill="#fff" />
<circle cx="120.00" cy="200.00" r="4.00" fill="none" stroke="#000" stroke-width="2" />
<circle cx="100.00" cy="200.00" r="4.00" stroke="none" fill="#fff" />
<circle cx="100.00" cy="200.00" r="4.00" fill="none" stroke="#000" stroke-width="2" />
<path d="M 100.00 120.00 L 100.00 200.00" fill="none" stroke="#000" stroke-width="2" />
<circle cx="100.00" cy="120.00" r="4.00" stroke="none" fill="#fff" />
<circle cx="100.00" cy="120.00" r="4.00" fill="none" stroke="#000" stroke-width="2" />
<circle cx="100.00" cy="200.00" r="4.00" stroke="none" fill="#fff" />
<circle cx="100.00" cy="200.00" r="4.00" fill="none" stroke="#000" stroke-width="2" />
<path d="M 100.00 200.00 L 100.00 400.00" fill="none" stroke="#000" stroke-width="2" />
<circle cx="100.00" cy="200.00" r="4.00" stroke="none" fill="#fff" />
<circle cx="100.00" cy="200.00" r="4.00" fill="none" stroke="#000" stroke-width="2" />
<circle cx="100.00" cy="400.00" r="4.00" stroke="none" fill="#fff" />
<circle cx="100.00" cy="400.00" r="4.00" fill="none" stroke="#000" stroke-width="2" />
<path d="M 230.00 200.00 L 250.00 200.00" fill="none" stroke="#000" stroke-width="2" />
<circle cx="230.00" cy="200.00" r="4.00" stroke="none" fill="#fff" />
<circle cx="230.00" cy="200.00" r="4.00" fill="none" stroke="#000" stroke-width="2" />
<circle cx="250.00" cy="200.00" r="4.00" stroke="none" fill="#fff" />
<circle cx="250.00" cy="200.00" r="4.00" fill="none" stroke="#000" stroke-width="2" />
<path d="M 270.00 160.00 L 290.00 160.00" fill="none" stroke="#000" stroke-width="2" />
<path d="M 330.00 160.00 L 350.00 160.00" fill="none" stroke="#000" stroke-width="2" />
<path d="M 290.00 140.00 L 290.00 180.00 L 320.00 160.00 L 290.00 140.00" fill="none" stroke="#000" stroke-width="2" />
<circle cx="325.00" cy="160.00" r="5.00" fill="none" stroke="#000" stroke-width="2" />
<circle cx="270.00" cy="160.00" r="4.00" stroke="none" fill="#fff" />
<circle cx="270.00" cy="160.00" r="4.00" fill="none" stroke="#000" stroke-width="2" />
<circle cx="350.00" cy="160.00" r="4.00" stroke="none" fill="#fff" />
<circle cx="350.00" cy="160.00" r="4.00" fill="none" stroke="#000" stroke-width="2" />
<path d="M 270.00 240.00 L 290.00 240.00" fill="none" stroke="#000" stroke-width="2" />
<path d="M 330.00 240.00 L 350.00 240.00" fill="none" stroke="#000" stroke-width="2" />
<path d="M 290.00 220.00 L 290.00 260.00 L 320.00 240.00 L 290.00 220.00" fill="none" stroke="#000" stroke-width="2" />
<circle cx="325.00" cy="240.00" r="5.00" fill="none" stroke="#000" stroke-width="2" />
<circle cx="270.00" cy="240.00" r="4.00" stroke="none" fill="#fff" />
<circle cx="270.00" cy="240.00" r="4.00" fill="none" stroke="#000" stroke-width="2" />
<circle cx="350.00" cy="240.00" r="4.00" stroke="none" fill="#fff" />
<circle cx="350.00" cy="240.00" r="4.00" fill="none" stroke="#000" stroke-width="2" />
<path d="M 250.00 120.00 L 250.00 160.00" fill="none" stroke="#000" stroke-width="2" />
<circle cx="250.00" cy="120.00" r="4.00" stroke="none" fill="#fff" />
<circle cx="250.00" cy="120.00" r="4.00" fill="none" stroke="#000" stroke-width="2" />
<circle cx="250.00" cy="160.00" r="4.00" stroke="none" fill="#fff" />
<circle cx="250.00" cy="160.00" r="4.00" fill="none" stroke="#000" stroke-width="2" />
<path d="M 250.00 160.00 L 270.00 160.00" fill="none" stroke="#000" stroke-width="2" />
<circle cx="250.00" cy="160.00" r="4.00" stroke="none" fill="#fff" />
<circle cx="250.00" cy="160.00" r="4.00" fill="none" stroke="#000" stroke-width="2" />
<circle cx="270.00" cy="160.00" r="4.00" stroke="none" fill="#fff" />
<circle cx="270.00" cy="160.00" r="4.00" fill="none" stroke="#000" stroke-width="2" />
<path d="M 250.00 200.00 L 250.00 240.00" fill="none" stroke="#000" stroke-width="2" />
<circle cx="250.00" cy="200.00" r="4.00" stroke="none" fill="#fff" />
<circle cx="250.00" cy="200.00" r="4.00" fill="none" stroke="#000" stroke-width="2" />
<circle cx="250.00" cy="240.00" r="4.00" stroke="none" fill="#fff" />
<circle cx="250.00" cy="240.00" r="4.00" fill="none" stroke="#000" stroke-width="2" />
<path d="M 250.00 240.00 L 270.00 240.00" fill="none" stroke="#000" stroke-width="2" />
<circle cx="250.00" cy="240.00" r="4.00" stroke="none" fill="#fff" />
<circle cx="250.00" cy="240.00" r="4.00" fill="none" stroke="#000" stroke-width="2" />
<circle cx="270.00" cy="240.00" r="4.00" stroke="none" fill="#fff" />
<circle cx="270.00" cy="240.00" r="4.00" fill="none" stroke="#000" stroke-width="2" />
<path d="M 450.00 110.00 L 475.00 110.00" fill="none" stroke="#000" stroke-width="2" />
<path d="M 450.00 130.00 L 475.00 130.00" fill="none" stroke="#000" stroke-width="2" />
<path d="M 510.00 120.00 L 530.00 120.00" fill="none" stroke="#000" stroke-width="2" />
<path d="M 470.00 100.00 C 479.00 109.00 , 479.00 131.00 , 470.00 140.00" fill="none" stroke="#000" stroke-width="2" />
<path d="M 470.00 100.00 C 490.00 100.00 , 505.00 110.00 , 510.00 120.00" fill="none" stroke="#000" stroke-width="2" />
<path d="M 470.00 140.00 C 490.00 140.00 , 505.00 130.00 , 510.00 120.00" fill="none" stroke="#000" stroke-width="2" />
<circle cx="450.00" cy="110.00" r="4.00" stroke="none" fill="#fff" />
<circle cx="450.00" cy="110.00" r="4.00" fill="none" stroke="#000" stroke-width="2" />
<circle cx="450.00" cy="130.00" r="4.00" stroke="none" fill="#fff" />
<circle cx="450.00" cy="130.00" r="4.00" fill="none" stroke="#000" stroke-width="2" />
<circle cx="530.00" cy="120.00" r="4.00" stroke="none" fill="#fff" />
<circle cx="530.00" cy="120.00" r="4.00" fill="none" stroke="#000" stroke-width="2" />
<path d="M 450.00 190.00 L 475.00 190.00" fill="none" stroke="#000" stroke-width="2" />
<path d="M 450.00 210.00 L 475.00 210.00" fill="none" stroke="#000" stroke-width="2" />
<path d="M 520.00 200.00 L 540.00 200.00" fill="none" stroke="#000" stroke-width="2" />
<path d="M 470.00 180.00 C 479.00 189.00 , 479.00 211.00 , 470.00 220.00" fill="none" stroke="#000" stroke-width="2" />
<path d="M 470.00 180.00 C 490.00 180.00 , 505.00 190.00 , 510.00 200.00" fill="none" stroke="#000" stroke-width="2" />
<path d="M 470.00 220.00 C 490.00 220.00 , 505.00 210.00 , 510.00 200.00" fill="none" stroke="#000" stroke-width="2" />
<circle cx="515.00" cy="200.00" r="5.00" fill="none" stroke="#000" stroke-width="2" />
<circle cx="450.00" cy="190.00" r="4.00" stroke="none" fill="#fff" />
<circle cx="450.00" cy="190.00" r="4.00" fill="none" stroke="#000" stroke-width="2" />
<circle cx="450.00" cy="210.00" r="4.00" stroke="none" fill="#fff" />
<circle cx="450.00" cy="210.00" r="4.00" fill="none" stroke="#000" stroke-width="2" />
<circle cx="540.00" cy="200.00" r="4.00" stroke="none" fill="#fff" />
<circle cx="540.00" cy="200.00" r="4.00" fill="none" stroke="#000" stroke-width="2" />
<path d="M 530.00 320.00 L 600.00 320.00" fill="none" stroke="#000" stroke-width="2" />
<circle cx="530.00" cy="320.00" r="4.00" stroke="none" fill="#fff" />
<circle cx="530.00" cy="320.00" r="4.00" fill="none" stroke="#000" stroke-width="2" />
<circle cx="600.00" cy="320.00" r="4.00" stroke="none" fill="#fff" />
<circle cx="600.00" cy="320.00" r="4.00" fill="none" stroke="#000" stroke-width="2" />
<path d="M 600.00 120.00 L 580.00 120.00" fill="none" stroke="#000" stroke-width="2" />
<circle cx="600.00" cy="120.00" r="4.00" stroke="none" fill="#fff" />
<circle cx="600.00" cy="120.00" r="4.00" fill="none" stroke="#000" stroke-width="2" />
<circle cx="580.00" cy="120.00" r="4.00" stroke="none" fill="#fff" />
<circle cx="580.00" cy="120.00" r="4.00" fill="none" stroke="#000" stroke-width="2" />
<path d="M 580.00 120.00 L 580.00 360.00" fill="none" stroke="#000" stroke-width="2" />
<circle cx="580.00" cy="120.00" r="4.00" stroke="none" fill="#fff" />
<circle cx="580.00" cy="120.00" r="4.00" fill="none" stroke="#000" stroke-width="2" />
<circle cx="580.00" cy="360.00" r="4.00" stroke="none" fill="#fff" />
<circle cx="580.00" cy="360.00" r="4.00" fill="none" stroke="#000" stroke-width="2" />
<path d="M 580.00 360.00 L 600.00 360.00" fill="none" stroke="#000" stroke-width="2" />
<circle cx="580.00" cy="360.00" r="4.00" stroke="none" fill="#fff" />
<circle cx="580.00" cy="360.00" r="4.00" fill="none" stroke="#000" stroke-width="2" />
<circle cx="600.00" cy="360.00" r="4.00" stroke="none" fill="#fff" />
<circle cx="600.00" cy="360.00" r="4.00" fill="none" stroke="#000" stroke-width="2" />
<path d="M 600.00 160.00 L 560.00 160.00" fill="none" stroke="#000" stroke-width="2" />
<circle cx="600.00" cy="160.00" r="4.00" stroke="none" fill="#fff" />
<circle cx="600.00" cy="160.00" r="4.00" fill="none" stroke="#000" stroke-width="2" />
<circle cx="560.00" cy="160.00" r="4.00" stroke="none" fill="#fff" />
<circle cx="560.00" cy="160.00" r="4.00" fill="none" stroke="#000" stroke-width="2" />
<path d="M 560.00 160.00 L 560.00 400.00" fill="none" stroke="#000" stroke-width="2" />
<circle cx="560.00" cy="160.00" r="4.00" stroke="none" fill="#fff" />
<circle cx="560.00" cy="160.00" r="4.00" fill="none" stroke="#000" stroke-width="2" />
<circle cx="560.00" cy="400.00" r="4.00" stroke="none" fill="#fff" />
<circle cx="560.00" cy="400.00" r="4.00" fill="none" stroke="#000" stroke-width="2" />
<path d="M 450.00 310.00 L 475.00 310.00" fill="none" stroke="#000" stroke-width="2" />
<path d="M 450.00 330.00 L 475.00 330.00" fill="none" stroke="#000" stroke-width="2" />
<path d="M 510.00 320.00 L 530.00 320.00" fill="none" stroke="#000" stroke-width="2" />
<path d="M 470.00 300.00 C 479.00 309.00 , 479.00 331.00 , 470.00 340.00" fill="none" stroke="#000" stroke-width="2" />
<path d="M 470.00 300.00 C 490.00 300.00 , 505.00 310.00 , 510.00 320.00" fill="none" stroke="#000" stroke-width="2" />
<path d="M 470.00 340.00 C 490.00 340.00 , 505.00 330.00 , 510.00 320.00" fill="none" stroke="#000" stroke-width="2" />
<circle cx="450.00" cy="310.00" r="4.00" stroke="none" fill="#fff" />
<circle cx="450.00" cy="310.00" r="4.00" fill="none" stroke="#000" stroke-width="2" />
<circle cx="450.00" cy="330.00" r="4.00" stroke="none" fill="#fff" />
<circle cx="450.00" cy="330.00" r="4.00" fill="none" stroke="#000" stroke-width="2" />
<circle cx="530.00" cy="320.00" r="4.00" stroke="none" fill="#fff" />
<circle cx="530.00" cy="320.00" r="4.00" fill="none" stroke="#000" stroke-width="2" />
<path d="M 350.00 160.00 L 390.00 160.00" fill="none" stroke="#000" stroke-width="2" />
<circle cx="350.00" cy="160.00" r="4.00" stroke="none" fill="#fff" />
<circle cx="350.00" cy="160.00" r="4.00" fill="none" stroke="#000" stroke-width="2" />
<circle cx="390.00" cy="160.00" r="4.00" stroke="none" fill="#fff" />
<circle cx="390.00" cy="160.00" r="4.00" fill="none" stroke="#000" stroke-width="2" />
<path d="M 250.00 200.00 L 410.00 200.00" fill="none" stroke="#000" stroke-width="2" />
<circle cx="250.00" cy="200.00" r="4.00" stroke="none" fill="#fff" />
<circle cx="250.00" cy="200.00" r="4.00" fill="none" stroke="#000" stroke-width="2" />
<circle cx="410.00" cy="200.00" r="4.00" stroke="none" fill="#fff" />
<circle cx="410.00" cy="200.00" r="4.00" fill="none" stroke="#000" stroke-width="2" />
<path d="M 250.00 120.00 L 370.00 120.00" fill="none" stroke="#000" stroke-width="2" />
<circle cx="250.00" cy="120.00" r="4.00" stroke="none" fill="#fff" />
<circle cx="250.00" cy="120.00" r="4.00" fill="none" stroke="#000" stroke-width="2" />
<circle cx="370.00" cy="120.00" r="4.00" stroke="none" fill="#fff" />
<circle cx="370.00" cy="120.00" r="4.00" fill="none" stroke="#000" stroke-width="2" />
<path d="M 410.00 130.00 L 450.00 130.00" fill="none" stroke="#000" stroke-width="2" />
<circle cx="410.00" cy="130.00" r="4.00" stroke="none" fill="#fff" />
<circle cx="410.00" cy="130.00" r="4.00" fill="none" stroke="#000" stroke-width="2" />
<circle cx="450.00" cy="130.00" r="4.00" stroke="none" fill="#fff" />
<circle cx="450.00" cy="130.00" r="4.00" fill="none" stroke="#000" stroke-width="2" />
<path d="M 390.00 160.00 L 390.00 110.00" fill="none" stroke="#000" stroke-width="2" />
<circle cx="390.00" cy="160.00" r="4.00" stroke="none" fill="#fff" />
<circle cx="390.00" cy="160.00" r="4.00" fill="none" stroke="#000" stroke-width="2" />
<circle cx="390.00" cy="110.00" r="4.00" stroke="none" fill="#fff" />
<circle cx="390.00" cy="110.00" r="4.00" fill="none" stroke="#000" stroke-width="2" />
<path d="M 390.00 110.00 L 450.00 110.00" fill="none" stroke="#000" stroke-width="2" />
<circle cx="390.00" cy="110.00" r="4.00" stroke="none" fill="#fff" />
<circle cx="390.00" cy="110.00" r="4.00" fill="none" stroke="#000" stroke-width="2" />
<circle cx="450.00" cy="110.00" r="4.00" stroke="none" fill="#fff" />
<circle cx="450.00" cy="110.00" r="4.00" fill="none" stroke="#000" stroke-width="2" />
<path d="M 450.00 190.00 L 370.00 190.00" fill="none" stroke="#000" stroke-width="2" />
<circle cx="450.00" cy="190.00" r="4.00" stroke="none" fill="#fff" />
<circle cx="450.00" cy="190.00" r="4.00" fill="none" stroke="#000" stroke-width="2" />
<circle cx="370.00" cy="190.00" r="4.00" stroke="none" fill="#fff" />
<circle cx="370.00" cy="190.00" r="4.00" fill="none" stroke="#000" stroke-width="2" />
<path d="M 370.00 120.00 L 370.00 190.00" fill="none" stroke="#000" stroke-width="2" />
<circle cx="370.00" cy="120.00" r="4.00" stroke="none" fill="#fff" />
<circle cx="370.00" cy="120.00" r="4.00" fill="none" stroke="#000" stroke-width="2" />
<circle cx="370.00" cy="190.00" r="4.00" stroke="none" fill="#fff" />
<circle cx="370.00" cy="190.00" r="4.00" fill="none" stroke="#000" stroke-width="2" />
<path d="M 370.00 190.00 L 370.00 310.00" fill="none" stroke="#000" stroke-width="2" />
<circle cx="370.00" cy="190.00" r="4.00" stroke="none" fill="#fff" />
<circle cx="370.00" cy="190.00" r="4.00" fill="none" stroke="#000" stroke-width="2" />
<circle cx="370.00" cy="310.00" r="4.00" stroke="none" fill="#fff" />
<circle cx="370.00" cy="310.00" r="4.00" fill="none" stroke="#000" stroke-width="2" />
<path d="M 370.00 310.00 L 450.00 310.00" fill="none" stroke="#000" stroke-width="2" />
<circle cx="370.00" cy="310.00" r="4.00" stroke="none" fill="#fff" />
<circle cx="370.00" cy="310.00" r="4.00" fill="none" stroke="#000" stroke-width="2" />
<circle cx="450.00" cy="310.00" r="4.00" stroke="none" fill="#fff" />
<circle cx="450.00" cy="310.00" r="4.00" fill="none" stroke="#000" stroke-width="2" />
<path d="M 350.00 240.00 L 350.00 330.00" fill="none" stroke="#000" stroke-width="2" />
<circle cx="350.00" cy="240.00" r="4.00" stroke="none" fill="#fff" />
<circle cx="350.00" cy="240.00" r="4.00" fill="none" stroke="#000" stroke-width="2" />
<circle cx="350.00" cy="330.00" r="4.00" stroke="none" fill="#fff" />
<circle cx="350.00" cy="330.00" r="4.00" fill="none" stroke="#000" stroke-width="2" />
<path d="M 350.00 330.00 L 450.00 330.00" fill="none" stroke="#000" stroke-width="2" />
<circle cx="350.00" cy="330.00" r="4.00" stroke="none" fill="#fff" />
<circle cx="350.00" cy="330.00" r="4.00" fill="none" stroke="#000" stroke-width="2" />
<circle cx="450.00" cy="330.00" r="4.00" stroke="none" fill="#fff" />
<circle cx="450.00" cy="330.00" r="4.00" fill="none" stroke="#000" stroke-width="2" />
<path d="M 390.00 160.00 L 390.00 280.00" fill="none" stroke="#000" stroke-width="2" />
<circle cx="390.00" cy="160.00" r="4.00" stroke="none" fill="#fff" />
<circle cx="390.00" cy="160.00" r="4.00" fill="none" stroke="#000" stroke-width="2" />
<circle cx="390.00" cy="280.00" r="4.00" stroke="none" fill="#fff" />
<circle cx="390.00" cy="280.00" r="4.00" fill="none" stroke="#000" stroke-width="2" />
<path d="M 390.00 280.00 L 600.00 280.00" fill="none" stroke="#000" stroke-width="2" />
<circle cx="390.00" cy="280.00" r="4.00" stroke="none" fill="#fff" />
<circle cx="390.00" cy="280.00" r="4.00" fill="none" stroke="#000" stroke-width="2" />
<circle cx="600.00" cy="280.00" r="4.00" stroke="none" fill="#fff" />
<circle cx="600.00" cy="280.00" r="4.00" fill="none" stroke="#000" stroke-width="2" />
<path d="M 530.00 120.00 L 580.00 120.00" fill="none" stroke="#000" stroke-width="2" />
<circle cx="530.00" cy="120.00" r="4.00" stroke="none" fill="#fff" />
<circle cx="530.00" cy="120.00" r="4.00" fill="none" stroke="#000" stroke-width="2" />
<circle cx="580.00" cy="120.00" r="4.00" stroke="none" fill="#fff" />
<circle cx="580.00" cy="120.00" r="4.00" fill="none" stroke="#000" stroke-width="2" />
<path d="M 540.00 200.00 L 600.00 200.00" fill="none" stroke="#000" stroke-width="2" />
<circle cx="540.00" cy="200.00" r="4.00" stroke="none" fill="#fff" />
<circle cx="540.00" cy="200.00" r="4.00" fill="none" stroke="#000" stroke-width="2" />
<circle cx="600.00" cy="200.00" r="4.00" stroke="none" fill="#fff" />
<circle cx="600.00" cy="200.00" r="4.00" fill="none" stroke="#000" stroke-width="2" />
<path d="M 600.00 240.00 L 410.00 240.00" fill="none" stroke="#000" stroke-width="2" />
<circle cx="600.00" cy="240.00" r="4.00" stroke="none" fill="#fff" />
<circle cx="600.00" cy="240.00" r="4.00" fill="none" stroke="#000" stroke-width="2" />
<circle cx="410.00" cy="240.00" r="4.00" stroke="none" fill="#fff" />
<circle cx="410.00" cy="240.00" r="4.00" fill="none" stroke="#000" stroke-width="2" />
<path d="M 100.00 400.00 L 560.00 400.00" fill="none" stroke="#000" stroke-width="2" />
<circle cx="100.00" cy="400.00" r="4.00" stroke="none" fill="#fff" />
<circle cx="100.00" cy="400.00" r="4.00" fill="none" stroke="#000" stroke-width="2" />
<circle cx="560.00" cy="400.00" r="4.00" stroke="none" fill="#fff" />
<circle cx="560.00" cy="400.00" r="4.00" fill="none" stroke="#000" stroke-width="2" />
<path d="M 410.00 130.00 L 410.00 200.00" fill="none" stroke="#000" stroke-width="2" />
<circle cx="410.00" cy="130.00" r="4.00" stroke="none" fill="#fff" />
<circle cx="410.00" cy="130.00" r="4.00" fill="none" stroke="#000" stroke-width="2" />
<circle cx="410.00" cy="200.00" r="4.00" stroke="none" fill="#fff" />
<circle cx="410.00" cy="200.00" r="4.00" fill="none" stroke="#000" stroke-width="2" />
<path d="M 410.00 200.00 L 410.00 210.00" fill="none" stroke="#000" stroke-width="2" />
<circle cx="410.00" cy="200.00" r="4.00" stroke="none" fill="#fff" />
<circle cx="410.00" cy="200.00" r="4.00" fill="none" stroke="#000" stroke-width="2" />
<circle cx="410.00" cy="210.00" r="4.00" stroke="none" fill="#fff" />
<circle cx="410.00" cy="210.00" r="4.00" fill="none" stroke="#000" stroke-width="2" />
<path d="M 410.00 210.00 L 450.00 210.00" fill="none" stroke="#000" stroke-width="2" />
<circle cx="410.00" cy="210.00" r="4.00" stroke="none" fill="#fff" />
<circle cx="410.00" cy="210.00" r="4.00" fill="none" stroke="#000" stroke-width="2" />
<circle cx="450.00" cy="210.00" r="4.00" stroke="none" fill="#fff" />
<circle cx="450.00" cy="210.00" r="4.00" fill="none" stroke="#000" stroke-width="2" />
<path d="M 410.00 210.00 L 410.00 240.00" fill="none" stroke="#000" stroke-width="2" />
<circle cx="410.00" cy="210.00" r="4.00" stroke="none" fill="#fff" />
<circle cx="410.00" cy="210.00" r="4.00" fill="none" stroke="#000" stroke-width="2" />
<circle cx="410.00" cy="240.00" r="4.00" stroke="none" fill="#fff" />
<circle cx="410.00" cy="240.00" r="4.00" fill="none" stroke="#000" stroke-width="2" />
</g>
</svg>
