<svg xmlns="http://www.w3.org/2000/svg" width="300px" height="160px"
                viewBox="12 -1 38 20">
<g id="1" style="fill-rule:evenodd; stroke:#FFFFFF;
    stroke-width:0.25; stroke-opacity:1; stroke-linecap:butt; stroke-linejoin:miter;">
  <polygon id="haut" points=" 14.5, 1  15.5, 0  21.5, 0  22.5, 1  21.5, 2  15.5, 2" fill="#000000"/>
  <polygon id="haut droit" points=" 22.5, 1 23.5, 2 23,       8  22,       9  21,       8  21.5, 2" fill="#000000"/>
  <polygon id="bas droit" points=" 22,       9 23,      10 22.5,16  21.5,17  20.5,16  21,      10" fill="#000000"/>
  <polygon id="bas" points=" 21.5,17  20.5,18  14.5,18  13.5,17  14.5,16  20.5,16" fill="#000000"/>
  <polygon id="bas gauche" points=" 13.5,17  12.5,16  13,      10  14,       9  15,      10  14.5,16" fill="#000000"/>
  <polygon id="haut gauche" points=" 14,       9  13,       8  13.5, 2  14.5, 1  15.5, 2  15,       8" fill="#000000"/>
  <polygon id="centre" points=" 14,       9  15,       8  21,       8  22,       9  21,      10  15,      10" fill="#f0f0f0"/>
</g><g id="2" style="fill-rule:evenodd; stroke:#FFFFFF;
    stroke-width:0.25; stroke-opacity:1; stroke-linecap:butt; stroke-linejoin:miter;">
  <polygon id="haut" points=" 27.5, 1  28.5, 0  34.5, 0  35.5, 1  34.5, 2  28.5, 2" fill="#f0f0f0"/>
  <polygon id="haut droit" points=" 35.5, 1 36.5, 2 36,       8  35,       9  34,       8  34.5, 2" fill="#000000"/>
  <polygon id="bas droit" points=" 35,       9 36,      10 35.5,16  34.5,17  33.5,16  34,      10" fill="#000000"/>
  <polygon id="bas" points=" 34.5,17  33.5,18  27.5,18  26.5,17  27.5,16  33.5,16" fill="#f0f0f0"/>
  <polygon id="bas gauche" points=" 26.5,17  25.5,16  26,      10  27,       9  28,      10  27.5,16" fill="#f0f0f0"/>
  <polygon id="haut gauche" points=" 27,       9  26,       8  26.5, 2  27.5, 1  28.5, 2  28,       8" fill="#f0f0f0"/>
  <polygon id="centre" points=" 27,       9  28,       8  34,       8  35,       9  34,      10  28,      10" fill="#f0f0f0"/>
</g></svg>