<svg width="500" height="300" xmlns="http://www.w3.org/2000/svg">
<g>
<path d="M 80.00 100.00 L 100.00 100.00" fill="none" stroke="#ff0000" stroke-width="2" />
<text x="60.00" y="107.00" font-family="Arial,Helvetica,sans-serif" font-size="14" font-weight="bold" text-anchor="middle" stroke="none" fill="#000" >1</text>
<circle cx="100.00" cy="100.00" r="4.00" stroke="none" fill="#fff" />
<circle cx="100.00" cy="100.00" r="4.00" fill="none" stroke="#ff0000" stroke-width="2" />
<path d="M 370.00 100.00 L 390.00 100.00" fill="none" stroke="#000000" stroke-width="2" />
<circle cx="405.00" cy="100.00" r="15.00" fill="none" stroke="#000" stroke-width="2" />
<circle cx="370.00" cy="100.00" r="4.00" stroke="none" fill="#fff" />
<circle cx="370.00" cy="100.00" r="4.00" fill="none" stroke="#000000" stroke-width="2" />
<path d="M 100.00 100.00 L 125.00 100.00" fill="none" stroke="#ff0000" stroke-width="2" />
<path d="M 155.00 100.00 L 180.00 100.00" fill="none" stroke="#000000" stroke-width="2" />
<path d="M 125.00 100.00 L 150.00 80.00" fill="none" stroke="#ff0000" stroke-width="2" />
<circle cx="125.00" cy="100.00" r="4.00" fill="none" stroke="#000" stroke-width="2" />
<circle cx="125.00" cy="100.00" r="4.00" stroke="none" fill="#000" />
<circle cx="155.00" cy="100.00" r="4.00" fill="none" stroke="#000" stroke-width="2" />
<circle cx="155.00" cy="100.00" r="4.00" stroke="none" fill="#000" />
<circle cx="100.00" cy="100.00" r="4.00" stroke="none" fill="#fff" />
<circle cx="100.00" cy="100.00" r="4.00" fill="none" stroke="#ff0000" stroke-width="2" />
<circle cx="180.00" cy="100.00" r="4.00" stroke="none" fill="#fff" />
<circle cx="180.00" cy="100.00" r="4.00" fill="none" stroke="#000000" stroke-width="2" />
<path d="M 180.00 100.00 L 370.00 100.00" fill="none" stroke="#000000" stroke-width="2" />
<circle cx="180.00" cy="100.00" r="4.00" stroke="none" fill="#fff" />
<circle cx="180.00" cy="100.00" r="4.00" fill="none" stroke="#000000" stroke-width="2" />
<circle cx="370.00" cy="100.00" r="4.00" stroke="none" fill="#fff" />
<circle cx="370.00" cy="100.00" r="4.00" fill="none" stroke="#000000" stroke-width="2" />
<path d="M 100.00 200.00 L 180.00 200.00" fill="none" stroke="#ff0000" stroke-width="2" />
<circle cx="125.00" cy="200.00" r="4.00" fill="none" stroke="#000" stroke-width="2" />
<circle cx="125.00" cy="200.00" r="4.00" stroke="none" fill="#000" />
<circle cx="155.00" cy="200.00" r="4.00" fill="none" stroke="#000" stroke-width="2" />
<circle cx="155.00" cy="200.00" r="4.00" stroke="none" fill="#000" />
<circle cx="100.00" cy="200.00" r="4.00" stroke="none" fill="#fff" />
<circle cx="100.00" cy="200.00" r="4.00" fill="none" stroke="#ff0000" stroke-width="2" />
<circle cx="180.00" cy="200.00" r="4.00" stroke="none" fill="#fff" />
<circle cx="180.00" cy="200.00" r="4.00" fill="none" stroke="#ff0000" stroke-width="2" />
<path d="M 80.00 200.00 L 100.00 200.00" fill="none" stroke="#ff0000" stroke-width="2" />
<text x="60.00" y="207.00" font-family="Arial,Helvetica,sans-serif" font-size="14" font-weight="bold" text-anchor="middle" stroke="none" fill="#000" >1</text>
<circle cx="100.00" cy="200.00" r="4.00" stroke="none" fill="#fff" />
<circle cx="100.00" cy="200.00" r="4.00" fill="none" stroke="#ff0000" stroke-width="2" />
<path d="M 370.00 200.00 L 390.00 200.00" fill="none" stroke="#ff0000" stroke-width="2" />
<circle cx="405.00" cy="200.00" r="15.00" fill="none" stroke="#000" stroke-width="2" />
<circle cx="405.00" cy="200.00" r="15.00" stroke="none" fill="red" />
<circle cx="405.00" cy="200.00" r="15.00" fill="none" stroke="#000" stroke-width="2" />
<circle cx="370.00" cy="200.00" r="4.00" stroke="none" fill="#fff" />
<circle cx="370.00" cy="200.00" r="4.00" fill="none" stroke="#ff0000" stroke-width="2" />
<path d="M 180.00 200.00 L 370.00 200.00" fill="none" stroke="#ff0000" stroke-width="2" />
<circle cx="180.00" cy="200.00" r="4.00" stroke="none" fill="#fff" />
<circle cx="180.00" cy="200.00" r="4.00" fill="none" stroke="#ff0000" stroke-width="2" />
<circle cx="370.00" cy="200.00" r="4.00" stroke="none" fill="#fff" />
<circle cx="370.00" cy="200.00" r="4.00" fill="none" stroke="#ff0000" stroke-width="2" />
</g>
</svg>
