<svg width="550" height="300" xmlns="http://www.w3.org/2000/svg">
<g>
<path d="M 80.00 100.00 L 100.00 100.00" fill="none" stroke="#000" stroke-width="2" />
<text x="60.00" y="107.00" font-family="Arial,Helvetica,sans-serif" font-size="14" font-weight="bold" text-anchor="middle" stroke="none" fill="#000" >1</text>
<circle cx="100.00" cy="100.00" r="4.00" stroke="none" fill="#fff" />
<circle cx="100.00" cy="100.00" r="4.00" fill="none" stroke="#000" stroke-width="2" />
<path d="M 420.00 190.00 L 440.00 190.00" fill="none" stroke="#000" stroke-width="2" />
<circle cx="455.00" cy="190.00" r="15.00" fill="none" stroke="#000" stroke-width="2" />
<circle cx="420.00" cy="190.00" r="4.00" stroke="none" fill="#fff" />
<circle cx="420.00" cy="190.00" r="4.00" fill="none" stroke="#000" stroke-width="2" />
<path d="M 100.00 100.00 L 125.00 100.00" fill="none" stroke="#000" stroke-width="2" />
<path d="M 155.00 100.00 L 180.00 100.00" fill="none" stroke="#000" stroke-width="2" />
<path d="M 125.00 100.00 L 150.00 80.00" fill="none" stroke="#000" stroke-width="2" />
<circle cx="125.00" cy="100.00" r="4.00" fill="none" stroke="#000" stroke-width="2" />
<circle cx="125.00" cy="100.00" r="4.00" stroke="none" fill="#000" />
<circle cx="155.00" cy="100.00" r="4.00" fill="none" stroke="#000" stroke-width="2" />
<circle cx="155.00" cy="100.00" r="4.00" stroke="none" fill="#000" />
<circle cx="100.00" cy="100.00" r="4.00" stroke="none" fill="#fff" />
<circle cx="100.00" cy="100.00" r="4.00" fill="none" stroke="#000" stroke-width="2" />
<circle cx="180.00" cy="100.00" r="4.00" stroke="none" fill="#fff" />
<circle cx="180.00" cy="100.00" r="4.00" fill="none" stroke="#000" stroke-width="2" />
<path d="M 180.00 100.00 L 220.00 100.00" fill="none" stroke="#000" stroke-width="2" />
<circle cx="180.00" cy="100.00" r="4.00" stroke="none" fill="#fff" />
<circle cx="180.00" cy="100.00" r="4.00" fill="none" stroke="#000" stroke-width="2" />
<circle cx="220.00" cy="100.00" r="4.00" stroke="none" fill="#fff" />
<circle cx="220.00" cy="100.00" r="4.00" fill="none" stroke="#000" stroke-width="2" />
<path d="M 100.00 200.00 L 125.00 200.00" fill="none" stroke="#000" stroke-width="2" />
<path d="M 155.00 200.00 L 180.00 200.00" fill="none" stroke="#000" stroke-width="2" />
<path d="M 125.00 200.00 L 150.00 180.00" fill="none" stroke="#000" stroke-width="2" />
<circle cx="125.00" cy="200.00" r="4.00" fill="none" stroke="#000" stroke-width="2" />
<circle cx="125.00" cy="200.00" r="4.00" stroke="none" fill="#000" />
<circle cx="155.00" cy="200.00" r="4.00" fill="none" stroke="#000" stroke-width="2" />
<circle cx="155.00" cy="200.00" r="4.00" stroke="none" fill="#000" />
<circle cx="100.00" cy="200.00" r="4.00" stroke="none" fill="#fff" />
<circle cx="100.00" cy="200.00" r="4.00" fill="none" stroke="#000" stroke-width="2" />
<circle cx="180.00" cy="200.00" r="4.00" stroke="none" fill="#fff" />
<circle cx="180.00" cy="200.00" r="4.00" fill="none" stroke="#000" stroke-width="2" />
<path d="M 100.00 100.00 L 100.00 200.00" fill="none" stroke="#000" stroke-width="2" />
<circle cx="100.00" cy="100.00" r="4.00" stroke="none" fill="#fff" />
<circle cx="100.00" cy="100.00" r="4.00" fill="none" stroke="#000" stroke-width="2" />
<circle cx="100.00" cy="200.00" r="4.00" stroke="none" fill="#fff" />
<circle cx="100.00" cy="200.00" r="4.00" fill="none" stroke="#000" stroke-width="2" />
<path d="M 220.00 200.00 L 240.00 200.00" fill="none" stroke="#000" stroke-width="2" />
<path d="M 280.00 200.00 L 300.00 200.00" fill="none" stroke="#000" stroke-width="2" />
<path d="M 240.00 180.00 L 240.00 220.00 L 270.00 200.00 L 240.00 180.00" fill="none" stroke="#000" stroke-width="2" />
<circle cx="275.00" cy="200.00" r="5.00" fill="none" stroke="#000" stroke-width="2" />
<circle cx="220.00" cy="200.00" r="4.00" stroke="none" fill="#fff" />
<circle cx="220.00" cy="200.00" r="4.00" fill="none" stroke="#000" stroke-width="2" />
<circle cx="300.00" cy="200.00" r="4.00" stroke="none" fill="#fff" />
<circle cx="300.00" cy="200.00" r="4.00" fill="none" stroke="#000" stroke-width="2" />
<path d="M 300.00 180.00 L 325.00 180.00" fill="none" stroke="#000" stroke-width="2" />
<path d="M 300.00 200.00 L 325.00 200.00" fill="none" stroke="#000" stroke-width="2" />
<path d="M 360.00 190.00 L 380.00 190.00" fill="none" stroke="#000" stroke-width="2" />
<path d="M 320.00 170.00 C 329.00 179.00 , 329.00 201.00 , 320.00 210.00" fill="none" stroke="#000" stroke-width="2" />
<path d="M 320.00 170.00 C 340.00 170.00 , 355.00 180.00 , 360.00 190.00" fill="none" stroke="#000" stroke-width="2" />
<path d="M 320.00 210.00 C 340.00 210.00 , 355.00 200.00 , 360.00 190.00" fill="none" stroke="#000" stroke-width="2" />
<circle cx="300.00" cy="180.00" r="4.00" stroke="none" fill="#fff" />
<circle cx="300.00" cy="180.00" r="4.00" fill="none" stroke="#000" stroke-width="2" />
<circle cx="300.00" cy="200.00" r="4.00" stroke="none" fill="#fff" />
<circle cx="300.00" cy="200.00" r="4.00" fill="none" stroke="#000" stroke-width="2" />
<circle cx="380.00" cy="190.00" r="4.00" stroke="none" fill="#fff" />
<circle cx="380.00" cy="190.00" r="4.00" fill="none" stroke="#000" stroke-width="2" />
<path d="M 220.00 100.00 L 240.00 100.00" fill="none" stroke="#000" stroke-width="2" />
<path d="M 220.00 120.00 L 240.00 120.00" fill="none" stroke="#000" stroke-width="2" />
<path d="M 280.00 110.00 L 300.00 110.00" fill="none" stroke="#000" stroke-width="2" />
<path d="M 260.00 90.00 L 240.00 90.00 L 240.00 130.00 L 260.00 130.00" fill="none" stroke="#000" stroke-width="2" />
<path d="M 260.00 90.00 C 270.00 90.00 , 280.00 100.00 , 280.00 110.00" fill="none" stroke="#000" stroke-width="2" />
<path d="M 260.00 130.00 C 270.00 130.00 , 280.00 120.00 , 280.00 110.00" fill="none" stroke="#000" stroke-width="2" />
<circle cx="220.00" cy="100.00" r="4.00" stroke="none" fill="#fff" />
<circle cx="220.00" cy="100.00" r="4.00" fill="none" stroke="#000" stroke-width="2" />
<circle cx="220.00" cy="120.00" r="4.00" stroke="none" fill="#fff" />
<circle cx="220.00" cy="120.00" r="4.00" fill="none" stroke="#000" stroke-width="2" />
<circle cx="300.00" cy="110.00" r="4.00" stroke="none" fill="#fff" />
<circle cx="300.00" cy="110.00" r="4.00" fill="none" stroke="#000" stroke-width="2" />
<path d="M 220.00 120.00 L 220.00 200.00" fill="none" stroke="#000" stroke-width="2" />
<circle cx="220.00" cy="120.00" r="4.00" stroke="none" fill="#fff" />
<circle cx="220.00" cy="120.00" r="4.00" fill="none" stroke="#000" stroke-width="2" />
<circle cx="220.00" cy="200.00" r="4.00" stroke="none" fill="#fff" />
<circle cx="220.00" cy="200.00" r="4.00" fill="none" stroke="#000" stroke-width="2" />
<path d="M 220.00 200.00 L 180.00 200.00" fill="none" stroke="#000" stroke-width="2" />
<circle cx="220.00" cy="200.00" r="4.00" stroke="none" fill="#fff" />
<circle cx="220.00" cy="200.00" r="4.00" fill="none" stroke="#000" stroke-width="2" />
<circle cx="180.00" cy="200.00" r="4.00" stroke="none" fill="#fff" />
<circle cx="180.00" cy="200.00" r="4.00" fill="none" stroke="#000" stroke-width="2" />
<path d="M 300.00 110.00 L 300.00 180.00" fill="none" stroke="#000" stroke-width="2" />
<circle cx="300.00" cy="110.00" r="4.00" stroke="none" fill="#fff" />
<circle cx="300.00" cy="110.00" r="4.00" fill="none" stroke="#000" stroke-width="2" />
<circle cx="300.00" cy="180.00" r="4.00" stroke="none" fill="#fff" />
<circle cx="300.00" cy="180.00" r="4.00" fill="none" stroke="#000" stroke-width="2" />
<path d="M 380.00 190.00 L 420.00 190.00" fill="none" stroke="#000" stroke-width="2" />
<circle cx="380.00" cy="190.00" r="4.00" stroke="none" fill="#fff" />
<circle cx="380.00" cy="190.00" r="4.00" fill="none" stroke="#000" stroke-width="2" />
<circle cx="420.00" cy="190.00" r="4.00" stroke="none" fill="#fff" />
<circle cx="420.00" cy="190.00" r="4.00" fill="none" stroke="#000" stroke-width="2" />
</g>
</svg>